<svg width="29" height="29" viewBox="0 0 29 29" fill="none" xmlns="http://www.w3.org/2000/svg">
<g clip-path="url(#clip0_5294_9100)">
<path d="M22.4139 15.9H9.40962L15.091 21.5814C15.545 22.0354 15.545 22.7805 15.091 23.2346C14.6369 23.6886 13.9035 23.6886 13.4494 23.2346L5.77727 15.5624C5.32322 15.1083 5.32322 14.3749 5.77727 13.9208L13.4378 6.23702C13.8919 5.78297 14.6253 5.78297 15.0794 6.23702C15.5334 6.69106 15.5334 7.42452 15.0794 7.87856L9.40962 13.5716H22.4139C23.0542 13.5716 23.5781 14.0955 23.5781 14.7358C23.5781 15.3761 23.0542 15.9 22.4139 15.9Z" fill="#FF6224"/>
</g>
<defs>
<clipPath id="clip0_5294_9100">
<rect width="27.9412" height="27.9412" fill="white" transform="matrix(-1 0 0 1 28.2344 0.765625)"/>
</clipPath>
</defs>
</svg>
