<svg width="16" height="16" viewBox="0 0 16 16" fill="none" xmlns="http://www.w3.org/2000/svg">
<g clip-path="url(#clip0_19_716)">
<path d="M13.3333 2.00008H12.6666V1.33341C12.6666 0.966748 12.3666 0.666748 12 0.666748C11.6333 0.666748 11.3333 0.966748 11.3333 1.33341V2.00008H4.66665V1.33341C4.66665 0.966748 4.36665 0.666748 3.99998 0.666748C3.63331 0.666748 3.33331 0.966748 3.33331 1.33341V2.00008H2.66665C1.93331 2.00008 1.33331 2.60008 1.33331 3.33341V14.0001C1.33331 14.7334 1.93331 15.3334 2.66665 15.3334H13.3333C14.0666 15.3334 14.6666 14.7334 14.6666 14.0001V3.33341C14.6666 2.60008 14.0666 2.00008 13.3333 2.00008ZM12.6666 14.0001H3.33331C2.96665 14.0001 2.66665 13.7001 2.66665 13.3334V5.33342H13.3333V13.3334C13.3333 13.7001 13.0333 14.0001 12.6666 14.0001Z" fill="#151515" fill-opacity="0.75"/>
</g>
<defs>
<clipPath id="clip0_19_716">
<rect width="16" height="16" fill="white"/>
</clipPath>
</defs>
</svg>
