<svg width="24" height="24" viewBox="0 0 24 24" fill="none" xmlns="http://www.w3.org/2000/svg">
<path d="M13.2 14.1C12.9 14.4 12.6 14.85 12.375 15.225C11.025 14.175 9.82498 12.9 8.77498 11.625C9.22498 11.4 9.59998 11.1 9.89998 10.8C11.4 9.29998 10.875 7.34999 9.37498 5.84999C7.87498 4.34999 5.99998 3.74999 4.42498 5.32499C2.84998 6.89998 2.69998 9.59999 3.89998 11.325C6.07498 14.625 9.37498 17.925 12.675 20.1C14.475 21.3 17.175 21.075 18.675 19.575C20.175 18.075 19.65 16.125 18.15 14.625C16.65 13.125 14.7 12.525 13.2 14.1Z" stroke="white" stroke-width="1.6" stroke-miterlimit="10" stroke-linejoin="round"/>
<path d="M20.925 10.425C20.925 6.3 17.625 3 13.5 3" stroke="white" stroke-width="1.6" stroke-miterlimit="10" stroke-linecap="round" stroke-linejoin="round"/>
<path d="M17.25 10.275C17.25 8.325 15.6 6.75 13.575 6.75" stroke="white" stroke-width="1.6" stroke-miterlimit="10" stroke-linecap="round" stroke-linejoin="round"/>
</svg>
