<svg width="24" height="25" viewBox="0 0 24 25" fill="none" xmlns="http://www.w3.org/2000/svg">
<path d="M20.25 17.75H3.75C2.925 17.75 2.25 17.075 2.25 16.25V13.25C2.25 11.6 3.6 10.25 5.25 10.25H18.75C20.4 10.25 21.75 11.6 21.75 13.25V16.25C21.75 17.075 21.075 17.75 20.25 17.75Z" stroke="black" stroke-width="1.5" stroke-miterlimit="10" stroke-linecap="round" stroke-linejoin="round"/>
<path d="M19.5 10.25H4.5L6 6.8C6.45 5.75 7.5 5 8.7 5H15.225C16.425 5 17.475 5.75 18 6.8L19.5 10.25Z" stroke="black" stroke-width="1.5" stroke-miterlimit="10" stroke-linecap="round" stroke-linejoin="round"/>
<path d="M7.5 17.75H3V19.25C3 20.075 3.675 20.75 4.5 20.75H6C6.825 20.75 7.5 20.075 7.5 19.25V17.75Z" stroke="black" stroke-width="1.5" stroke-miterlimit="10" stroke-linecap="round" stroke-linejoin="round"/>
<path d="M21 17.75H16.5V19.25C16.5 20.075 17.175 20.75 18 20.75H19.5C20.325 20.75 21 20.075 21 19.25V17.75Z" stroke="black" stroke-width="1.5" stroke-miterlimit="10" stroke-linecap="round" stroke-linejoin="round"/>
<path d="M2.25 9.5H4.8" stroke="black" stroke-width="1.5" stroke-miterlimit="10" stroke-linecap="round" stroke-linejoin="round"/>
<path d="M19.5 9.5H21.75" stroke="black" stroke-width="1.5" stroke-miterlimit="10" stroke-linecap="round" stroke-linejoin="round"/>
<path d="M15.75 17.75H8.25L9.3 15.575C9.525 15.05 10.05 14.75 10.65 14.75H13.275C13.875 14.75 14.4 15.05 14.625 15.575L15.75 17.75Z" stroke="black" stroke-width="1.5" stroke-miterlimit="10" stroke-linecap="round" stroke-linejoin="round"/>
<path d="M4.5 14H6.75" stroke="black" stroke-width="1.5" stroke-miterlimit="10" stroke-linecap="round" stroke-linejoin="round"/>
<path d="M17.25 14H19.5" stroke="black" stroke-width="1.5" stroke-miterlimit="10" stroke-linecap="round" stroke-linejoin="round"/>
</svg>
