<svg width="1440" height="323" viewBox="0 0 1440 323" fill="none" xmlns="http://www.w3.org/2000/svg">
<rect width="1440" height="323" fill="url(#paint0_linear_56_859)"/>
<mask id="mask0_56_859" style="mask-type:alpha" maskUnits="userSpaceOnUse" x="2" y="0" width="1440" height="321">
<rect x="2" width="1440" height="321" fill="url(#paint1_linear_56_859)"/>
</mask>
<g mask="url(#mask0_56_859)">
<g opacity="0.4">
<g clip-path="url(#clip0_56_859)">
<path d="M929.69 206.84H1008.62V456.97H929.69V206.84Z" fill="#F5F5F5"/>
<path d="M929.7 206.84H969.16V456.28H929.7V206.84Z" fill="#EBEBEB"/>
<path d="M971.74 182.29H999.61V206.85H971.74V182.29Z" fill="#F5F5F5"/>
<path d="M971.74 182.29H978.38V206.85H971.74V182.29Z" fill="#EBEBEB"/>
<path d="M1015.2 206.84V205.41H927.39V206.84" fill="#E0E0E0"/>
<path d="M986.36 217.55H993.04V231.64H986.36V217.55Z" fill="#FAFAFA"/>
<path d="M969.16 237.17C969.16 237.32 977.99 237.44 988.89 237.44C999.79 237.44 1008.62 237.32 1008.62 237.17C1008.62 237.02 999.79 236.9 988.89 236.9C977.99 236.9 969.16 237 969.16 237.17Z" fill="#E0E0E0"/>
<path d="M946.56 217.55H953.24V231.64H946.56V217.55Z" fill="#E0E0E0"/>
<path d="M929.35 237.17C929.35 237.32 938.19 237.44 949.08 237.44C959.97 237.44 968.82 237.32 968.82 237.17C968.82 237.02 959.98 236.9 949.08 236.9C938.18 236.9 929.35 237 929.35 237.17Z" fill="#E0E0E0"/>
<path d="M946.56 245.52H953.24V259.61H946.56V245.52Z" fill="#E0E0E0"/>
<path d="M929.35 265.14C929.35 265.29 938.19 265.41 949.08 265.41C959.97 265.41 968.82 265.29 968.82 265.14C968.82 264.99 959.98 264.87 949.08 264.87C938.18 264.87 929.35 265 929.35 265.14Z" fill="#E0E0E0"/>
<path d="M946.56 274.33H953.24V288.42H946.56V274.33Z" fill="#E0E0E0"/>
<path d="M929.35 294C929.35 294.15 938.19 294.27 949.08 294.27C959.97 294.27 968.82 294.15 968.82 294C968.82 293.85 959.98 293.73 949.08 293.73C938.18 293.73 929.35 293.8 929.35 294Z" fill="#E0E0E0"/>
<path d="M946.56 303.14H953.24V317.23H946.56V303.14Z" fill="#E0E0E0"/>
<path d="M986.36 245.95H993.04V260.04H986.36V245.95Z" fill="#FAFAFA"/>
<path d="M969.16 265.56C969.16 265.71 977.99 265.83 988.89 265.83C999.79 265.83 1008.62 265.71 1008.62 265.56C1008.62 265.41 999.79 265.29 988.89 265.29C977.99 265.29 969.16 265.42 969.16 265.56Z" fill="#E0E0E0"/>
<path d="M986.36 274.34H993.04V288.43H986.36V274.34Z" fill="#FAFAFA"/>
<path d="M969.16 294C969.16 294.15 977.99 294.27 988.89 294.27C999.79 294.27 1008.62 294.15 1008.62 294C1008.62 293.85 999.79 293.73 988.89 293.73C977.99 293.73 969.16 293.81 969.16 294Z" fill="#E0E0E0"/>
<path d="M986.36 302.74H993.04V316.83H986.36V302.74Z" fill="#FAFAFA"/>
<path d="M1007.74 277.77H1064.45V457.49H1007.74V277.77Z" fill="#F5F5F5"/>
<path d="M1007.75 277.77H1036.1V457H1007.75V277.77Z" fill="#EBEBEB"/>
<path d="M1037.95 260.13H1057.98V277.77H1037.95V260.13Z" fill="#F5F5F5"/>
<path d="M1037.96 260.13H1042.73V277.77H1037.96V260.13Z" fill="#EBEBEB"/>
<path d="M1069.18 277.77V276.74H1006.09V277.77" fill="#E0E0E0"/>
<path d="M1048.46 285.47H1053.26V295.59H1048.46V285.47Z" fill="#FAFAFA"/>
<path d="M1036.08 299.56C1036.08 299.67 1042.43 299.75 1050.26 299.75C1058.09 299.75 1064.43 299.67 1064.43 299.56C1064.43 299.45 1058.09 299.37 1050.26 299.37C1042.43 299.37 1036.08 299.45 1036.08 299.56Z" fill="#E0E0E0"/>
<path d="M1019.86 285.47H1024.66V295.59H1019.86V285.47Z" fill="#E0E0E0"/>
<path d="M1007.5 299.56C1007.5 299.67 1013.85 299.75 1021.68 299.75C1029.51 299.75 1035.85 299.67 1035.85 299.56C1035.85 299.45 1029.51 299.37 1021.68 299.37C1013.85 299.37 1007.5 299.45 1007.5 299.56Z" fill="#E0E0E0"/>
<path d="M1019.86 305.56H1024.66V315.68H1019.86V305.56Z" fill="#E0E0E0"/>
<path d="M1007.5 319.66C1007.5 319.76 1013.85 319.85 1021.68 319.85C1029.51 319.85 1035.85 319.76 1035.85 319.66C1035.85 319.56 1029.51 319.46 1021.68 319.46C1013.85 319.46 1007.5 319.55 1007.5 319.66Z" fill="#E0E0E0"/>
<path d="M1048.46 305.87H1053.26V315.99H1048.46V305.87Z" fill="#FAFAFA"/>
<path d="M1036.08 320C1036.08 320.11 1042.43 320.2 1050.26 320.2C1058.09 320.2 1064.43 320.11 1064.43 320C1064.43 319.89 1058.09 319.81 1050.26 319.81C1042.43 319.81 1036.08 319.86 1036.08 320Z" fill="#E0E0E0"/>
<path d="M708.85 150.93H767.38V304.62H708.85V150.93Z" fill="#EBEBEB"/>
<path d="M708.85 150.93H738.12V304.62H708.85V150.93Z" fill="#E0E0E0"/>
<path d="M740.03 132.66H760.7V150.93H740.03V132.66Z" fill="#EBEBEB"/>
<path d="M740.02 132.66H744.95V150.93H740.02V132.66Z" fill="#E0E0E0"/>
<path d="M707.14 149.86H772.26V150.93H707.14V149.86Z" fill="#E0E0E0"/>
<path d="M750.88 158.9H755.83V169.38H750.88V158.9Z" fill="white"/>
<path d="M738.08 173.49C738.08 173.6 744.63 173.69 752.71 173.69C760.79 173.69 767.34 173.6 767.34 173.49C767.34 173.38 760.79 173.29 752.71 173.29C744.63 173.29 738.08 173.38 738.08 173.49Z" fill="#E0E0E0"/>
<path d="M721.36 158.9H726.31V169.38H721.36V158.9Z" fill="#F5F5F5"/>
<path d="M708.6 173.49C708.6 173.6 715.15 173.69 723.23 173.69C731.31 173.69 737.86 173.6 737.86 173.49C737.86 173.38 731.31 173.29 723.23 173.29C715.15 173.29 708.6 173.38 708.6 173.49Z" fill="#EBEBEB"/>
<path d="M721.36 179.7H726.31V190.18H721.36V179.7Z" fill="#F5F5F5"/>
<path d="M708.6 194.3C708.6 194.41 715.15 194.5 723.23 194.5C731.31 194.5 737.86 194.41 737.86 194.3C737.86 194.19 731.31 194.1 723.23 194.1C715.15 194.1 708.6 194.19 708.6 194.3Z" fill="#EBEBEB"/>
<path d="M721.36 201.14H726.31V211.62H721.36V201.14Z" fill="#F5F5F5"/>
<path d="M708.6 215.73C708.6 215.84 715.15 215.93 723.23 215.93C731.31 215.93 737.86 215.84 737.86 215.73C737.86 215.62 731.31 215.53 723.23 215.53C715.15 215.53 708.6 215.62 708.6 215.73Z" fill="#EBEBEB"/>
<path d="M721.36 222.58H726.31V233.06H721.36V222.58Z" fill="#F5F5F5"/>
<path d="M708.6 237.17C708.6 237.28 715.15 237.37 723.23 237.37C731.31 237.37 737.86 237.28 737.86 237.17C737.86 237.06 731.31 236.97 723.23 236.97C715.15 236.97 708.6 237.06 708.6 237.17Z" fill="#EBEBEB"/>
<path d="M721.36 243.4H726.31V253.88H721.36V243.4Z" fill="#F5F5F5"/>
<path d="M708.6 258C708.6 258.11 715.15 258.2 723.23 258.2C731.31 258.2 737.86 258.11 737.86 258C737.86 257.89 731.31 257.8 723.23 257.8C715.15 257.8 708.6 257.88 708.6 258Z" fill="#EBEBEB"/>
<path d="M721.36 264.3H726.31V274.78H721.36V264.3Z" fill="#F5F5F5"/>
<path d="M721.36 285.48H726.31V295.96H721.36V285.48Z" fill="#F5F5F5"/>
<path d="M708.6 278.9C708.6 279.01 715.15 279.1 723.23 279.1C731.31 279.1 737.86 279.01 737.86 278.9C737.86 278.79 731.31 278.7 723.23 278.7C715.15 278.7 708.6 278.79 708.6 278.9Z" fill="#EBEBEB"/>
<path d="M750.88 180.02H755.83V190.5H750.88V180.02Z" fill="white"/>
<path d="M738.08 194.62C738.08 194.73 744.63 194.82 752.71 194.82C760.79 194.82 767.34 194.73 767.34 194.62C767.34 194.51 760.79 194.42 752.71 194.42C744.63 194.42 738.08 194.51 738.08 194.62Z" fill="#E0E0E0"/>
<path d="M750.88 201.15H755.83V211.63H750.88V201.15Z" fill="white"/>
<path d="M738.08 215.74C738.08 215.85 744.63 215.94 752.71 215.94C760.79 215.94 767.34 215.85 767.34 215.74C767.34 215.63 760.79 215.54 752.71 215.54C744.63 215.54 738.08 215.63 738.08 215.74Z" fill="#E0E0E0"/>
<path d="M750.88 222.27H755.83V232.75H750.88V222.27Z" fill="white"/>
<path d="M738.08 236.87C738.08 236.98 744.63 237.07 752.71 237.07C760.79 237.07 767.34 236.98 767.34 236.87C767.34 236.76 760.79 236.67 752.71 236.67C744.63 236.67 738.08 236.76 738.08 236.87Z" fill="#E0E0E0"/>
<path d="M750.88 243.4H755.83V253.88H750.88V243.4Z" fill="white"/>
<path d="M738.08 258C738.08 258.11 744.63 258.2 752.71 258.2C760.79 258.2 767.34 258.11 767.34 258C767.34 257.89 760.79 257.8 752.71 257.8C744.63 257.8 738.08 257.88 738.08 258Z" fill="#E0E0E0"/>
<path d="M750.88 264.52H755.83V275H750.88V264.52Z" fill="white"/>
<path d="M738.08 279.12C738.08 279.23 744.63 279.32 752.71 279.32C760.79 279.32 767.34 279.23 767.34 279.12C767.34 279.01 760.79 278.92 752.71 278.92C744.63 278.92 738.08 279 738.08 279.12Z" fill="#E0E0E0"/>
<path d="M750.88 285.65H755.83V296.13H750.88V285.65Z" fill="white"/>
<path d="M838.07 311.01H914.4V456.33H838.07V311.01Z" fill="#E0E0E0"/>
<path d="M838.07 311.01H873.86V456.33H838.07V311.01Z" fill="#EBEBEB"/>
<path d="M832.33 307.49H920.13V311.13H832.33V307.49Z" fill="#E0E0E0"/>
<path d="M837.54 311.48C837.54 311.62 854.6 311.74 875.63 311.74C896.66 311.74 913.74 311.62 913.74 311.48C913.74 311.34 896.68 311.22 875.63 311.22C854.58 311.22 837.54 311.33 837.54 311.48Z" fill="#EBEBEB"/>
<path d="M589.44 230.07H648.53V417.95H589.44V230.07Z" fill="#F5F5F5"/>
<path d="M589.43 230.07H618.98V417.43H589.43V230.07Z" fill="#EBEBEB"/>
<path d="M620.91 211.63H641.78V230.07H620.91V211.63Z" fill="#F5F5F5"/>
<path d="M620.92 211.63H625.89V230.07H620.92V211.63Z" fill="#EBEBEB"/>
<path d="M653.45 230.07V229H587.71V230.07" fill="#E0E0E0"/>
<path d="M631.87 238.12H636.87V248.7H631.87V238.12Z" fill="#FAFAFA"/>
<path d="M618.98 252.85C618.98 252.96 625.6 253.05 633.76 253.05C641.92 253.05 648.53 252.96 648.53 252.85C648.53 252.74 641.92 252.65 633.76 252.65C625.6 252.65 618.98 252.74 618.98 252.85Z" fill="#E0E0E0"/>
<path d="M602.06 238.12H607.06V248.7H602.06V238.12Z" fill="#E0E0E0"/>
<path d="M589.18 252.85C589.18 252.96 595.8 253.05 603.95 253.05C612.1 253.05 618.73 252.96 618.73 252.85C618.73 252.74 612.11 252.65 603.95 252.65C595.79 252.65 589.18 252.74 589.18 252.85Z" fill="#E0E0E0"/>
<path d="M602.06 259.12H607.06V269.7H602.06V259.12Z" fill="#E0E0E0"/>
<path d="M589.18 273.86C589.18 273.97 595.8 274.06 603.95 274.06C612.1 274.06 618.73 273.97 618.73 273.86C618.73 273.75 612.11 273.65 603.95 273.65C595.79 273.65 589.18 273.75 589.18 273.86Z" fill="#E0E0E0"/>
<path d="M602.06 280.76H607.06V291.34H602.06V280.76Z" fill="#E0E0E0"/>
<path d="M589.18 295.5C589.18 295.61 595.8 295.7 603.95 295.7C612.1 295.7 618.73 295.61 618.73 295.5C618.73 295.39 612.11 295.3 603.95 295.3C595.79 295.3 589.18 295.39 589.18 295.5Z" fill="#E0E0E0"/>
<path d="M602.06 302.4H607.06V312.98H602.06V302.4Z" fill="#E0E0E0"/>
<path d="M589.18 317.14C589.18 317.25 595.8 317.34 603.95 317.34C612.1 317.34 618.73 317.25 618.73 317.14C618.73 317.03 612.11 316.94 603.95 316.94C595.79 316.94 589.18 317 589.18 317.14Z" fill="#E0E0E0"/>
<path d="M631.87 259.44H636.87V270.02H631.87V259.44Z" fill="#FAFAFA"/>
<path d="M618.98 274.18C618.98 274.29 625.6 274.38 633.76 274.38C641.92 274.38 648.53 274.29 648.53 274.18C648.53 274.07 641.92 273.98 633.76 273.98C625.6 273.98 618.98 274.07 618.98 274.18Z" fill="#E0E0E0"/>
<path d="M631.87 280.77H636.87V291.35H631.87V280.77Z" fill="#FAFAFA"/>
<path d="M618.98 295.5C618.98 295.62 625.6 295.71 633.76 295.71C641.92 295.71 648.53 295.62 648.53 295.5C648.53 295.38 641.92 295.3 633.76 295.3C625.6 295.3 618.98 295.39 618.98 295.5Z" fill="#E0E0E0"/>
<path d="M631.87 302.1H636.87V312.68H631.87V302.1Z" fill="#FAFAFA"/>
<path d="M618.98 316.83C618.98 316.94 625.6 317.03 633.76 317.03C641.92 317.03 648.53 316.94 648.53 316.83C648.53 316.72 641.92 316.63 633.76 316.63C625.6 316.63 618.98 316.72 618.98 316.83Z" fill="#E0E0E0"/>
<path d="M652.68 457.05H750.44L750.86 302.06H653.1L652.68 457.05Z" fill="#EBEBEB"/>
<path d="M653.1 302.06H701.98V457.05H653.1V302.06Z" fill="#E0E0E0"/>
<path d="M705.18 271.55H739.7V302.06H705.18V271.55Z" fill="#EBEBEB"/>
<path d="M705.18 271.55H713.41V302.06H705.18V271.55Z" fill="#E0E0E0"/>
<path d="M650.25 300.28H759.01V302.06H650.25V300.28Z" fill="#E0E0E0"/>
<path d="M723.29 315.37H731.56V332.87H723.29V315.37Z" fill="white"/>
<path d="M673.99 315.37H682.26V332.87H673.99V315.37Z" fill="#F5F5F5"/>
<path d="M773.02 171.05H853.23V455.96H773.02V171.05Z" fill="#EBEBEB"/>
<path d="M839.58 180.88H846.72V195.94H839.58V180.88Z" fill="white"/>
<path d="M824.57 180.88H831.71V195.94H824.57V180.88Z" fill="white"/>
<path d="M809.56 180.88H816.7V195.94H809.56V180.88Z" fill="white"/>
<path d="M794.55 180.88H801.69V195.94H794.55V180.88Z" fill="white"/>
<path d="M779.54 180.88H786.68V195.94H779.54V180.88Z" fill="white"/>
<path d="M839.58 201.94H846.72V217H839.58V201.94Z" fill="white"/>
<path d="M824.57 201.94H831.71V217H824.57V201.94Z" fill="white"/>
<path d="M809.56 201.94H816.7V217H809.56V201.94Z" fill="white"/>
<path d="M794.55 201.94H801.69V217H794.55V201.94Z" fill="white"/>
<path d="M779.54 201.94H786.68V217H779.54V201.94Z" fill="white"/>
<path d="M839.58 223.01H846.72V238.07H839.58V223.01Z" fill="white"/>
<path d="M824.57 223.01H831.71V238.07H824.57V223.01Z" fill="white"/>
<path d="M809.56 223.01H816.7V238.07H809.56V223.01Z" fill="white"/>
<path d="M794.55 223.01H801.69V238.07H794.55V223.01Z" fill="white"/>
<path d="M779.54 223.01H786.68V238.07H779.54V223.01Z" fill="white"/>
<path d="M839.58 244.07H846.72V259.13H839.58V244.07Z" fill="white"/>
<path d="M824.57 244.07H831.71V259.13H824.57V244.07Z" fill="white"/>
<path d="M809.56 244.07H816.7V259.13H809.56V244.07Z" fill="white"/>
<path d="M794.55 244.07H801.69V259.13H794.55V244.07Z" fill="white"/>
<path d="M779.54 244.07H786.68V259.13H779.54V244.07Z" fill="white"/>
<path d="M839.58 265.14H846.72V280.2H839.58V265.14Z" fill="white"/>
<path d="M824.57 265.14H831.71V280.2H824.57V265.14Z" fill="white"/>
<path d="M809.56 265.14H816.7V280.2H809.56V265.14Z" fill="white"/>
<path d="M794.55 265.14H801.69V280.2H794.55V265.14Z" fill="white"/>
<path d="M779.54 265.14H786.68V280.2H779.54V265.14Z" fill="white"/>
<path d="M839.58 286.2H846.72V301.26H839.58V286.2Z" fill="white"/>
<path d="M824.57 286.2H831.71V301.26H824.57V286.2Z" fill="white"/>
<path d="M809.56 286.2H816.7V301.26H809.56V286.2Z" fill="white"/>
<path d="M794.55 286.2H801.69V301.26H794.55V286.2Z" fill="white"/>
<path d="M779.54 286.2H786.68V301.26H779.54V286.2Z" fill="white"/>
<path d="M839.58 307.26H846.72V322.32H839.58V307.26Z" fill="white"/>
<path d="M824.57 307.26H831.71V322.32H824.57V307.26Z" fill="white"/>
<path d="M809.56 307.26H816.7V322.32H809.56V307.26Z" fill="white"/>
<path d="M794.55 307.26H801.69V322.32H794.55V307.26Z" fill="white"/>
<path d="M779.54 307.26H786.68V322.32H779.54V307.26Z" fill="white"/>
<path d="M737.98 171.05H773.02V455.96H737.98V171.05Z" fill="#E0E0E0"/>
<path d="M809.56 180.88H816.7V195.94H809.56V180.88Z" fill="white"/>
<path d="M794.55 180.88H801.69V195.94H794.55V180.88Z" fill="white"/>
<path d="M779.54 180.88H786.68V195.94H779.54V180.88Z" fill="white"/>
<path d="M809.56 201.94H816.7V217H809.56V201.94Z" fill="white"/>
<path d="M794.55 201.94H801.69V217H794.55V201.94Z" fill="white"/>
<path d="M779.54 201.94H786.68V217H779.54V201.94Z" fill="white"/>
<path d="M809.56 223.01H816.7V238.07H809.56V223.01Z" fill="white"/>
<path d="M794.55 223.01H801.69V238.07H794.55V223.01Z" fill="white"/>
<path d="M779.54 223.01H786.68V238.07H779.54V223.01Z" fill="white"/>
<path d="M809.56 244.07H816.7V259.13H809.56V244.07Z" fill="white"/>
<path d="M794.55 244.07H801.69V259.13H794.55V244.07Z" fill="white"/>
<path d="M779.54 244.07H786.68V259.13H779.54V244.07Z" fill="white"/>
<path d="M809.56 265.14H816.7V280.2H809.56V265.14Z" fill="white"/>
<path d="M794.55 265.14H801.69V280.2H794.55V265.14Z" fill="white"/>
<path d="M779.54 265.14H786.68V280.2H779.54V265.14Z" fill="white"/>
<path d="M809.56 286.2H816.7V301.26H809.56V286.2Z" fill="white"/>
<path d="M794.55 286.2H801.69V301.26H794.55V286.2Z" fill="white"/>
<path d="M779.54 286.2H786.68V301.26H779.54V286.2Z" fill="white"/>
<path d="M809.56 307.26H816.7V322.32H809.56V307.26Z" fill="white"/>
<path d="M794.55 307.26H801.69V322.32H794.55V307.26Z" fill="white"/>
<path d="M779.54 307.26H786.68V322.32H779.54V307.26Z" fill="white"/>
<path d="M757.95 180.88H765.09V195.94H757.95V180.88Z" fill="#EBEBEB"/>
<path d="M742.94 180.88H750.08V195.94H742.94V180.88Z" fill="#EBEBEB"/>
<path d="M757.95 201.94H765.09V217H757.95V201.94Z" fill="#EBEBEB"/>
<path d="M742.94 201.94H750.08V217H742.94V201.94Z" fill="#EBEBEB"/>
<path d="M757.95 223.01H765.09V238.07H757.95V223.01Z" fill="#EBEBEB"/>
<path d="M742.94 223.01H750.08V238.07H742.94V223.01Z" fill="#EBEBEB"/>
<path d="M757.95 244.07H765.09V259.13H757.95V244.07Z" fill="#EBEBEB"/>
<path d="M742.94 244.07H750.08V259.13H742.94V244.07Z" fill="#EBEBEB"/>
<path d="M757.95 265.14H765.09V280.2H757.95V265.14Z" fill="#EBEBEB"/>
<path d="M742.94 265.14H750.08V280.2H742.94V265.14Z" fill="#EBEBEB"/>
<path d="M757.95 286.2H765.09V301.26H757.95V286.2Z" fill="#EBEBEB"/>
<path d="M742.94 286.2H750.08V301.26H742.94V286.2Z" fill="#EBEBEB"/>
<path d="M757.95 307.26H765.09V322.32H757.95V307.26Z" fill="#EBEBEB"/>
<path d="M742.94 307.26H750.08V322.32H742.94V307.26Z" fill="#EBEBEB"/>
<path d="M671.42 238.31C671.1 238.31 670.83 245.06 670.83 253.38C670.83 261.7 671.1 268.46 671.42 268.46C671.74 268.46 672.01 261.71 672.01 253.38C672.01 245.05 671.75 238.31 671.42 238.31Z" fill="#E0E0E0"/>
<path d="M641.44 270.8L725.52 294.67V456.36H641.44V270.8Z" fill="#E0E0E0"/>
<path d="M712.91 291V262.32H661.14V276.31L712.91 291Z" fill="#E0E0E0"/>
<path d="M719.11 296.28L718.45 444.96H650.05V276.66L719.11 296.28Z" fill="white"/>
<path d="M700.62 448.35C700.94 448.35 701.21 412.67 701.21 368.66C701.21 324.65 700.94 288.98 700.62 288.98C700.3 288.98 700.03 324.65 700.03 368.66C700.03 412.67 700.29 448.35 700.62 448.35Z" fill="#E0E0E0"/>
<path d="M671.87 448.35C672.2 448.35 672.46 410.68 672.46 364.23C672.46 317.78 672.2 280.1 671.87 280.1C671.54 280.1 671.28 317.76 671.28 364.23C671.28 410.7 671.55 448.35 671.87 448.35Z" fill="#E0E0E0"/>
<path d="M645.33 319C645.33 319.32 662.33 319.58 683.33 319.58C704.33 319.58 721.33 319.32 721.33 319C721.33 318.68 704.33 318.41 683.33 318.41C662.33 318.41 645.33 318.65 645.33 319Z" fill="#E0E0E0"/>
<path d="M641.76 270.8C641.67 271.12 660.28 276.67 683.32 283.21C706.36 289.75 725.08 294.8 725.2 294.49C725.32 294.18 706.68 288.62 683.64 282.08C660.6 275.54 641.85 270.49 641.76 270.8Z" fill="#E0E0E0"/>
<path d="M656.59 296.31C656.34 296.52 658.1 298.98 660.51 301.8C662.92 304.62 665.08 306.74 665.32 306.53C665.56 306.32 663.81 303.86 661.4 301.03C658.99 298.2 656.84 296.1 656.59 296.31Z" fill="#E0E0E0"/>
<path d="M658.55 293.32C658.31 293.54 659.55 295.32 661.33 297.32C663.11 299.32 664.75 300.69 664.99 300.47C665.23 300.25 663.99 298.47 662.2 296.53C660.41 294.59 658.79 293.1 658.55 293.32Z" fill="#E0E0E0"/>
<path d="M1121.51 409.92C1121.51 409.92 1122.16 409.49 1120.73 407.61C1119.3 405.73 1121.51 404.72 1121.51 404.72C1127.76 408.33 1136.51 404.72 1136.51 404.72C1136.51 404.72 1126.22 401.55 1124.92 398.52C1123.92 396.25 1125.66 396 1126.59 396.02C1125.54 395.91 1123.27 395.54 1122.59 394.33C1121.68 392.74 1125.26 390.86 1125.26 390.86C1125.08 390.478 1124.98 390.059 1124.98 389.635C1124.98 389.211 1125.08 388.792 1125.26 388.41C1125.85 386.82 1139.26 384.51 1139.26 384.51C1135.35 384.95 1133.92 381.05 1133.92 381.05C1133.92 381.05 1127.27 381.19 1125.71 378.59C1124.15 375.99 1126.71 375.27 1131.18 373.11C1135.65 370.95 1145.38 362.86 1145.38 362.86C1145.38 362.86 1139.26 362.28 1137.56 360.86C1135.86 359.44 1137.43 359.13 1137.43 359.13C1130.14 359.85 1132.61 355.95 1132.61 355.95C1138.41 354.184 1143.61 350.835 1147.61 346.28C1147.61 346.28 1143.06 345.28 1140.71 343.11C1138.36 340.94 1142.71 340.36 1142.71 340.36C1142.71 340.36 1134.12 339.21 1139.07 336.03C1142.83 333.62 1148.85 330.37 1150.72 329.39C1148.67 330.15 1144.02 329.24 1144.02 329.24C1138.55 326.79 1144.02 323.18 1144.02 323.18C1150.4 319.57 1159.78 310.48 1159.78 310.48C1159.78 310.48 1155.09 312.93 1152.78 312.21C1150.47 311.49 1155.39 308.6 1155.39 308.6C1155.39 308.6 1152.91 309.32 1151.87 308.6C1150.83 307.88 1154.61 304.6 1154.61 304.6C1160.08 300.88 1167.01 291.3 1169.9 287.19C1172.8 291.3 1179.72 300.88 1185.34 304.53C1185.34 304.53 1189.11 307.85 1188.07 308.53C1187.03 309.21 1184.55 308.53 1184.55 308.53C1184.55 308.53 1189.55 311.42 1187.16 312.14C1184.77 312.86 1180.16 310.41 1180.16 310.41C1180.16 310.41 1189.54 319.5 1195.93 323.11C1195.93 323.11 1201.4 326.72 1195.93 329.17C1195.93 329.17 1191.27 330.08 1189.22 329.32C1191.09 330.32 1197.11 333.55 1200.88 335.96C1205.88 339.14 1197.23 340.29 1197.23 340.29C1197.23 340.29 1201.53 340.87 1199.23 343.04C1196.93 345.21 1192.33 346.21 1192.33 346.21C1196.33 350.765 1201.53 354.114 1207.33 355.88C1207.33 355.88 1209.8 359.78 1202.51 359.06C1202.51 359.06 1204.07 359.35 1202.38 360.79C1200.69 362.23 1194.56 362.79 1194.56 362.79C1194.56 362.79 1204.33 370.87 1208.76 373.04C1213.19 375.21 1215.76 375.92 1214.23 378.52C1212.7 381.12 1206.03 380.98 1206.03 380.98C1206.03 380.98 1204.59 384.88 1200.69 384.44C1200.69 384.44 1214.1 386.75 1214.69 388.34C1214.88 388.721 1214.98 389.14 1214.98 389.565C1214.98 389.99 1214.88 390.409 1214.69 390.79C1214.69 390.79 1218.27 392.67 1217.36 394.26C1216.67 395.47 1214.36 395.84 1213.36 395.95C1214.29 395.95 1216.01 396.18 1215.03 398.45C1213.73 401.45 1203.44 404.65 1203.44 404.65C1203.44 404.65 1212.17 408.26 1218.44 404.65C1218.44 404.65 1220.66 405.65 1219.22 407.54C1217.78 409.43 1218.44 409.85 1218.44 409.85C1218.44 409.85 1221.7 407.4 1220.26 411.15C1218.82 414.9 1211.26 417.22 1211.26 417.22C1211.26 417.22 1215.97 418.22 1214.26 420.22C1211.94 422.96 1206.39 425.73 1201.5 425.85C1196.77 425.771 1192.06 425.239 1187.43 424.26C1187.43 424.26 1192.9 427.15 1189.12 428.74C1185.34 430.33 1181.05 426.74 1181.05 426.74C1181.05 426.74 1181.83 430.44 1178.7 429.17C1176.6 428.244 1174.67 426.988 1172.97 425.45C1172.97 425.45 1171.97 430.89 1170.04 429.59C1168.09 430.89 1167.11 425.45 1167.11 425.45C1165.41 426.991 1163.48 428.247 1161.38 429.17C1158.26 430.44 1159.04 426.74 1159.04 426.74C1159.04 426.74 1154.74 430.35 1150.96 428.74C1147.18 427.13 1152.65 424.26 1152.65 424.26C1152.65 424.26 1144.58 426.43 1138.59 425.85C1132.6 425.27 1127.12 422.53 1125.82 420.22C1124.52 417.91 1128.82 417.22 1128.82 417.22C1128.82 417.22 1121.26 414.91 1119.82 411.15C1118.38 407.39 1121.51 409.92 1121.51 409.92Z" fill="#EBEBEB"/>
<path d="M1105.9 264.69C1106.59 262.568 1107.57 260.549 1108.8 258.69C1109.42 257.761 1110.23 256.967 1111.17 256.357C1112.11 255.747 1113.16 255.333 1114.26 255.14C1115.36 254.979 1116.49 255.186 1117.46 255.728C1118.44 256.27 1119.21 257.118 1119.65 258.14C1119.97 253.38 1120.65 248.5 1123.02 244.36C1125.39 240.22 1129.85 236.98 1134.61 237.28C1139.1 237.55 1142.95 240.89 1145.08 244.84C1147.21 248.79 1147.95 253.34 1148.66 257.84C1150.36 255.75 1153.95 256.4 1155.73 258.43C1157.51 260.46 1157.95 263.29 1158.33 265.95H1104.78L1105.9 264.69Z" fill="#F5F5F5"/>
<path d="M1042.58 178.9C1043 177.624 1043.58 176.41 1044.32 175.29C1044.69 174.734 1045.18 174.259 1045.74 173.893C1046.3 173.527 1046.93 173.278 1047.59 173.16C1048.26 173.066 1048.94 173.195 1049.52 173.528C1050.11 173.861 1050.57 174.378 1050.83 175C1050.86 172.127 1051.54 169.299 1052.83 166.73C1054.26 164.25 1056.93 162.3 1059.78 162.47C1062.63 162.64 1064.78 164.64 1066.07 167.01C1067.21 169.462 1067.94 172.088 1068.21 174.78C1069.21 173.53 1071.39 173.92 1072.46 175.14C1073.42 176.457 1073.98 178.022 1074.08 179.65H1041.94L1042.58 178.9Z" fill="#F5F5F5"/>
<path d="M895.14 171.16C895.91 168.772 897.004 166.501 898.39 164.41C899.091 163.366 899.995 162.473 901.048 161.786C902.101 161.099 903.282 160.631 904.52 160.41C907 160.11 909.76 161.41 910.57 163.82C910.93 158.48 911.68 153 914.36 148.36C917.04 143.72 922.03 140.07 927.36 140.36C932.36 140.67 936.72 144.41 939.11 148.86C941.5 153.31 942.34 158.4 943.11 163.39C945.08 161.09 949.08 161.83 951.08 164.1C953.08 166.37 953.58 169.55 954 172.55H893.88L895.14 171.16Z" fill="#F5F5F5"/>
<path d="M581.22 169.65C581.913 167.507 582.895 165.468 584.14 163.59C584.765 162.651 585.573 161.849 586.517 161.232C587.461 160.615 588.52 160.196 589.63 160C590.752 159.835 591.896 160.048 592.883 160.605C593.87 161.163 594.643 162.034 595.08 163.08C595.4 158.28 596.08 153.36 598.48 149.2C600.88 145.04 605.36 141.77 610.15 142.06C614.67 142.34 618.55 145.7 620.7 149.68C622.85 153.66 623.59 158.24 624.3 162.68C626.01 160.58 629.63 161.24 631.42 163.28C633.21 165.32 633.66 168.17 634.04 170.86H580.08L581.22 169.65Z" fill="#F5F5F5"/>
<path d="M842.3 142.24C842.862 140.514 843.656 138.872 844.66 137.36C845.164 136.607 845.816 135.963 846.576 135.468C847.335 134.973 848.187 134.637 849.08 134.48C849.986 134.354 850.909 134.533 851.702 134.99C852.495 135.446 853.113 136.153 853.46 137C853.72 133.13 854.27 129.17 856.2 125.82C858.13 122.47 861.74 119.82 865.6 120.06C869.25 120.29 872.37 122.99 874.1 126.21C875.83 129.43 876.43 133.1 877 136.71C878.38 135.01 881.29 135.55 882.73 137.19C884.17 138.83 884.54 141.13 884.85 143.29H841.4L842.3 142.24Z" fill="#F5F5F5"/>
<path d="M1138.87 192.75C1140.01 189.214 1141.63 185.85 1143.68 182.75C1145.86 179.75 1149.06 177.31 1152.73 176.86C1156.4 176.41 1160.48 178.39 1161.68 181.86C1162.2 173.96 1163.32 165.86 1167.27 159.01C1171.22 152.16 1178.6 146.84 1186.5 147.32C1193.94 147.78 1200.32 153.32 1203.86 159.87C1207.4 166.42 1208.62 174 1209.78 181.34C1212.61 177.88 1218.57 178.97 1221.51 182.34C1224.45 185.71 1225.2 190.34 1225.83 194.81H1137.02L1138.87 192.75Z" fill="#F5F5F5"/>
<path d="M709.29 202.48C709.29 202.48 710.1 202.2 711.6 201.87C713.715 201.407 715.896 201.322 718.04 201.62C721.228 202.043 724.236 203.341 726.73 205.37C729.779 207.857 731.928 211.275 732.85 215.1V215.2L733.03 215.9L733.3 215.24C734.792 211.614 737.348 208.525 740.63 206.38C743.325 204.629 746.423 203.596 749.63 203.38C751.785 203.224 753.95 203.423 756.04 203.97C757.51 204.36 758.29 204.7 758.31 204.66C758.14 204.546 757.955 204.455 757.76 204.39C757.212 204.159 756.651 203.959 756.08 203.79C753.465 203.021 750.715 202.82 748.016 203.201C745.317 203.582 742.73 204.537 740.43 206C737.055 208.158 734.424 211.299 732.89 215H733.34V214.89C732.401 210.951 730.181 207.434 727.03 204.89C724.442 202.878 721.341 201.63 718.08 201.29C715.897 201.022 713.684 201.157 711.55 201.69C710.972 201.834 710.405 202.014 709.85 202.23C709.657 202.299 709.47 202.382 709.29 202.48Z" fill="#263238"/>
<path d="M661.32 226.12C661.32 226.12 661.78 225.99 662.6 225.82C663.763 225.589 664.956 225.555 666.13 225.72C667.862 225.964 669.493 226.677 670.85 227.78C672.503 229.141 673.671 231 674.18 233.08V233.14L674.36 233.84L674.63 233.18C675.441 231.201 676.837 229.516 678.63 228.35C680.089 227.392 681.769 226.823 683.51 226.7C684.688 226.603 685.873 226.698 687.02 226.98C687.434 227.115 687.854 227.229 688.28 227.32C688.188 227.254 688.087 227.2 687.98 227.16C687.684 227.017 687.376 226.9 687.06 226.81C685.906 226.449 684.697 226.3 683.49 226.37C681.682 226.451 679.926 227.007 678.4 227.98C676.521 229.177 675.055 230.923 674.2 232.98H674.65V232.92C674.129 230.737 672.894 228.791 671.14 227.39C669.953 226.443 668.56 225.786 667.074 225.474C665.587 225.161 664.048 225.201 662.58 225.59C662.263 225.67 661.952 225.774 661.65 225.9C661.529 225.955 661.418 226.03 661.32 226.12Z" fill="#263238"/>
<path d="M682.14 173C682.529 173.491 682.943 173.961 683.38 174.41C684.493 175.683 685.496 177.048 686.38 178.49C689.345 183.254 690.901 188.759 690.87 194.37V194.57H691.34C691.795 191.555 692.777 188.644 694.24 185.97C695.429 183.775 696.917 181.756 698.66 179.97C699.839 178.773 701.125 177.685 702.5 176.72C703.024 176.413 703.531 176.079 704.02 175.72C704.02 175.72 703.86 175.78 703.59 175.93C703.182 176.14 702.785 176.37 702.4 176.62C700.957 177.53 699.616 178.593 698.4 179.79C694.354 183.758 691.702 188.929 690.84 194.53H691.31V194.33C691.348 188.632 689.722 183.047 686.63 178.26C685.703 176.829 684.641 175.49 683.46 174.26C683.05 173.82 682.69 173.51 682.46 173.26C682.362 173.163 682.255 173.076 682.14 173Z" fill="#263238"/>
</g>
</g>
</g>
<defs>
<linearGradient id="paint0_linear_56_859" x1="35" y1="119.461" x2="1419.99" y2="354.416" gradientUnits="userSpaceOnUse">
<stop stop-color="#1494CB"/>
<stop offset="1" stop-color="#21C1DC"/>
</linearGradient>
<linearGradient id="paint1_linear_56_859" x1="20.5" y1="61.3264" x2="1326.47" y2="501.63" gradientUnits="userSpaceOnUse">
<stop stop-color="#F1F8FF"/>
<stop offset="1" stop-color="#F1F8FF" stop-opacity="0"/>
</linearGradient>
<clipPath id="clip0_56_859">
<rect width="712.08" height="419.74" fill="white" transform="matrix(-1 0 0 1 1256.08 120)"/>
</clipPath>
</defs>
</svg>
