<svg width="256" height="130" viewBox="0 0 256 130" fill="none" xmlns="http://www.w3.org/2000/svg">
<g clip-path="url(#clip0_10_530)">
<path d="M153.207 56.4469C141.997 86.5143 155.095 119.179 155.095 119.179C155.095 119.179 186.279 103.102 197.571 73.0506C208.863 42.9996 195.667 10.3184 195.667 10.3184C195.667 10.3184 164.401 26.3302 153.207 56.4469Z" fill="url(#paint0_linear_10_530)"/>
<g style="mix-blend-mode:multiply">
<path d="M156.408 57.4168C156.371 57.3444 156.35 57.2648 156.348 57.1835C156.345 57.1023 156.36 57.0214 156.391 56.9466C156.423 56.8717 156.47 56.8046 156.53 56.7499C156.59 56.6953 156.661 56.6544 156.739 56.6302C156.816 56.6059 156.898 56.5989 156.979 56.6096C157.059 56.6202 157.136 56.6483 157.205 56.6919C157.273 56.7355 157.331 56.7935 157.375 56.8619C157.419 56.9304 157.447 57.0075 157.458 57.088L166.895 86.4321L174.56 66.1296L166.354 36.539C166.334 36.4699 166.329 36.3977 166.337 36.3264C166.346 36.2551 166.368 36.1862 166.403 36.1237C166.438 36.0611 166.485 36.006 166.542 35.9616C166.598 35.9172 166.662 35.8844 166.731 35.865C166.8 35.8455 166.872 35.8399 166.944 35.8484C167.015 35.8569 167.083 35.8793 167.146 35.9144C167.208 35.9495 167.263 35.9966 167.308 36.053C167.352 36.1094 167.385 36.174 167.404 36.2431L175.233 64.3542L183.997 41.1255L180.255 27.7604C180.236 27.6902 180.23 27.6168 180.24 27.5445C180.249 27.4722 180.273 27.4025 180.309 27.3396C180.346 27.2767 180.395 27.2218 180.454 27.1783C180.512 27.1348 180.579 27.1036 180.649 27.0864C180.718 27.0664 180.791 27.0604 180.862 27.0686C180.933 27.0769 181.002 27.0992 181.065 27.1344C181.127 27.1696 181.182 27.2169 181.227 27.2736C181.271 27.3302 181.303 27.3951 181.322 27.4645L184.605 39.383L194.19 14.0008C194.212 13.9306 194.248 13.8658 194.296 13.8105C194.344 13.7552 194.403 13.7107 194.47 13.6797C194.536 13.6487 194.609 13.632 194.682 13.6307C194.755 13.6294 194.828 13.6434 194.896 13.672C194.965 13.6976 195.028 13.7366 195.082 13.7869C195.136 13.8372 195.18 13.8978 195.21 13.965C195.241 14.0323 195.258 14.105 195.26 14.1788C195.262 14.2527 195.25 14.3263 195.224 14.3953L185.786 39.4816L195.175 32.1333C195.291 32.0459 195.436 32.0074 195.58 32.0258C195.724 32.0442 195.855 32.1182 195.946 32.2319C195.991 32.2887 196.025 32.354 196.044 32.4239C196.064 32.4938 196.069 32.567 196.06 32.6391C196.051 32.7111 196.027 32.7806 195.991 32.8434C195.954 32.9062 195.906 32.961 195.847 33.0045L185.048 41.4707L176.251 64.7652L198.769 48.5067C198.826 48.4635 198.892 48.4324 198.962 48.4156C199.032 48.3987 199.104 48.3964 199.175 48.4087C199.246 48.421 199.313 48.4478 199.373 48.4872C199.433 48.5267 199.485 48.5781 199.524 48.6383C199.609 48.7566 199.645 48.9036 199.624 49.048C199.602 49.1924 199.525 49.3227 199.409 49.4109L175.545 66.6392L167.946 86.7937L195.339 69.9271C195.463 69.8532 195.612 69.8307 195.753 69.8645C195.894 69.8982 196.016 69.9855 196.094 70.1079C196.133 70.1704 196.159 70.2401 196.171 70.3129C196.183 70.3856 196.181 70.4601 196.164 70.5319C196.147 70.6037 196.116 70.6715 196.073 70.7313C196.03 70.7912 195.976 70.8419 195.913 70.8806L167.306 88.4706L161.922 102.723L175.988 94.5038C176.051 94.4581 176.122 94.4259 176.198 94.4094C176.273 94.3928 176.351 94.3921 176.427 94.4075C176.503 94.4228 176.575 94.4537 176.638 94.4983C176.701 94.5429 176.755 94.6002 176.795 94.6666C176.835 94.7329 176.86 94.8069 176.87 94.8838C176.88 94.9606 176.874 95.0387 176.852 95.1131C176.83 95.1874 176.793 95.2564 176.744 95.3157C176.694 95.3749 176.632 95.4231 176.563 95.4572L161.299 104.433L156.999 115.842C156.95 115.977 156.851 116.087 156.722 116.149C156.592 116.21 156.444 116.218 156.309 116.171C156.24 116.145 156.177 116.106 156.123 116.056C156.069 116.005 156.025 115.945 155.994 115.878C155.964 115.81 155.947 115.738 155.945 115.664C155.942 115.59 155.955 115.516 155.981 115.447L160.281 104.071L151.714 86.6951C151.67 86.5654 151.675 86.424 151.728 86.2977C151.781 86.1715 151.879 86.0692 152.002 86.0104C152.126 85.9516 152.267 85.9402 152.398 85.9786C152.53 86.0169 152.642 86.1023 152.715 86.2184L160.872 102.608L166.354 88.0925L156.408 57.4168Z" fill="#B8C4D1"/>
</g>
<path d="M194.108 74.1849C166.666 90.7392 156.638 124.473 156.638 124.473C156.638 124.473 191.104 131.361 218.546 114.806C245.988 98.2519 256.066 64.5186 256.066 64.5186C256.066 64.5186 221.599 57.5648 194.108 74.1849Z" fill="url(#paint1_linear_10_530)"/>
<g style="mix-blend-mode:multiply">
<path d="M196.012 76.9302C196.087 76.8485 196.184 76.791 196.292 76.7652C196.4 76.7393 196.513 76.7462 196.617 76.7851C196.721 76.8239 196.811 76.8928 196.876 76.9831C196.94 77.0733 196.977 77.1809 196.98 77.2919L186.148 106.159L204.743 95.0298L216.675 66.7872C216.733 66.6532 216.841 66.5471 216.976 66.4918C217.111 66.4365 217.262 66.4363 217.397 66.4913C217.465 66.5182 217.527 66.5586 217.578 66.6099C217.63 66.6612 217.671 66.7225 217.699 66.79C217.726 66.8576 217.74 66.93 217.739 67.0029C217.738 67.0759 217.722 67.1479 217.693 67.2146L206.368 94.1092L227.705 81.3524L233.088 68.5462C233.115 68.4784 233.155 68.4167 233.206 68.3649C233.258 68.313 233.319 68.2721 233.386 68.2444C233.454 68.2168 233.526 68.2031 233.599 68.2041C233.672 68.2051 233.743 68.2208 233.81 68.2503C233.944 68.3083 234.05 68.4165 234.105 68.5516C234.16 68.6868 234.16 68.8383 234.105 68.9736L229.297 80.3825L252.57 66.4749C252.695 66.4133 252.839 66.401 252.973 66.4405C253.107 66.4799 253.221 66.5682 253.293 66.6879C253.365 66.8077 253.39 66.9501 253.362 67.0872C253.335 67.2242 253.257 67.346 253.144 67.4283L230.166 81.188L242.066 81.2866C242.211 81.2909 242.349 81.3517 242.45 81.456C242.551 81.5604 242.607 81.7001 242.607 81.8456C242.61 81.9189 242.597 81.9919 242.569 82.0599C242.542 82.1279 242.501 82.1894 242.448 82.2405C242.396 82.2916 242.333 82.3311 242.264 82.3565C242.196 82.3819 242.122 82.3927 242.049 82.3881L228.345 82.2237L207.008 94.997L234.729 96.2957C234.802 96.2977 234.873 96.3144 234.939 96.3447C235.005 96.3749 235.065 96.4182 235.114 96.4719C235.163 96.5256 235.2 96.5885 235.224 96.6571C235.249 96.7257 235.259 96.7984 235.254 96.871C235.252 96.9437 235.236 97.0153 235.205 97.0814C235.175 97.1475 235.132 97.2069 235.078 97.256C235.025 97.3051 234.962 97.3428 234.894 97.3671C234.825 97.3913 234.752 97.4015 234.68 97.3971L205.285 96.0326L186.804 107.113L218.776 111.009C218.92 111.033 219.049 111.111 219.137 111.227C219.225 111.343 219.267 111.488 219.252 111.633C219.232 111.779 219.155 111.911 219.038 112C218.921 112.089 218.774 112.129 218.628 112.11L185.261 108.033L172.131 115.858L188.298 118.127C188.44 118.151 188.568 118.23 188.653 118.346C188.739 118.463 188.776 118.608 188.757 118.752C188.749 118.825 188.727 118.895 188.69 118.959C188.654 119.023 188.606 119.079 188.547 119.124C188.489 119.169 188.422 119.201 188.351 119.219C188.28 119.237 188.206 119.24 188.134 119.228L170.72 116.746L160.265 122.993C160.14 123.067 159.992 123.089 159.851 123.056C159.71 123.022 159.588 122.935 159.51 122.812C159.471 122.751 159.445 122.683 159.433 122.611C159.421 122.54 159.424 122.466 159.441 122.396C159.458 122.325 159.488 122.259 159.531 122.201C159.574 122.142 159.628 122.093 159.69 122.056L170.112 115.825L174.166 97.019C174.182 96.9484 174.211 96.8817 174.253 96.8227C174.294 96.7636 174.347 96.7135 174.408 96.6752C174.469 96.6369 174.538 96.6113 174.609 96.5997C174.68 96.5882 174.753 96.591 174.823 96.608C174.894 96.6213 174.962 96.6494 175.023 96.6904C175.083 96.7315 175.134 96.7846 175.172 96.8464C175.211 96.9082 175.236 96.9774 175.247 97.0496C175.257 97.1217 175.253 97.1953 175.233 97.2656L171.376 115.102L184.687 107.146L196.012 76.9302Z" fill="#B8C4D1"/>
</g>
<g style="mix-blend-mode:multiply">
<path d="M38.8928 110.417C38.8928 110.417 0.0275726 121.25 0.0275726 125.607C0.0275726 129.963 58.8507 129.503 87.7042 129.503C116.558 129.503 166.485 129.158 170.096 125.607C173.707 122.056 143.672 110.417 143.672 110.417H38.8928Z" fill="#B8C4D1"/>
</g>
<path d="M147.857 100.208H19.214V113.984H147.857V100.208Z" fill="url(#paint2_linear_10_530)"/>
<path d="M3.95021 98.0053H26.928V121.382C26.928 122.502 26.4836 123.577 25.6925 124.369C24.9015 125.162 23.8286 125.607 22.7099 125.607H8.23392C7.11522 125.607 6.04234 125.162 5.2513 124.369C4.46026 123.577 4.01586 122.502 4.01586 121.382V98.0053H3.95021Z" fill="url(#paint3_linear_10_530)"/>
<path d="M162.136 125.607H147.611C146.492 125.607 145.419 125.162 144.628 124.369C143.837 123.577 143.392 122.502 143.392 121.382V98.0053H166.37V121.382C166.37 121.938 166.261 122.489 166.048 123.003C165.835 123.516 165.522 123.983 165.129 124.375C164.736 124.768 164.269 125.079 163.755 125.29C163.241 125.501 162.691 125.609 162.136 125.607Z" fill="url(#paint4_linear_10_530)"/>
<path d="M22.8084 33.5964L9.15303 32.9059C7.88448 32.8508 6.68624 32.307 5.8085 31.388C4.93076 30.469 4.44139 29.2459 4.44258 27.9741C4.44258 26.6661 4.96134 25.4117 5.88473 24.4868C6.80813 23.562 8.06052 23.0424 9.36639 23.0424H13.8142C15.0363 23.0388 16.2331 23.3912 17.2588 24.0567C18.2846 24.7222 19.095 25.672 19.5915 26.7905L20.7404 29.3715H27.1413L22.8084 33.5964Z" fill="url(#paint5_linear_10_530)"/>
<path d="M147.561 33.5964L161.2 32.9059C162.469 32.8508 163.667 32.307 164.545 31.388C165.423 30.469 165.912 29.2459 165.911 27.9741C165.911 26.6661 165.392 25.4117 164.469 24.4868C163.545 23.562 162.293 23.0424 160.987 23.0424H156.539C155.317 23.0409 154.121 23.3941 153.096 24.0594C152.071 24.7246 151.26 25.6732 150.762 26.7905L149.613 29.3715H143.228L147.561 33.5964Z" fill="url(#paint6_linear_10_530)"/>
<path d="M168.816 58.584V96.6902C168.813 98.3967 168.432 100.081 167.7 101.622L166.173 104.811C165.252 106.731 163.808 108.352 162.008 109.486C160.208 110.62 158.124 111.222 155.997 111.222H135.531C134.138 111.222 132.757 110.96 131.46 110.45L128.293 109.233C125.155 108.007 121.814 107.382 118.445 107.392H51.8425C48.4737 107.382 45.1332 108.007 41.9948 109.233L38.8272 110.45C37.5305 110.96 36.1499 111.222 34.7568 111.222H14.3559C12.2314 111.221 10.1506 110.618 8.35318 109.484C6.55575 108.35 5.11482 106.73 4.19639 104.811L2.67001 101.622C1.92897 100.084 1.5473 98.3977 1.55395 96.6902V58.584C1.55749 55.6853 2.66723 52.8977 4.65595 50.7918L8.84119 46.4025L9.05455 46.1888L22.8084 31.6894C26.6189 21.6543 31.605 12.1076 37.6619 3.2495C37.6619 3.2495 44.4567 0.175358 83.7323 0.0274048H86.5881C125.979 0.158919 132.675 3.20018 132.675 3.20018C138.703 12.0623 143.662 21.6088 147.446 31.6401L162.316 47.3231L165.599 50.7754C167.633 52.8673 168.785 55.6637 168.816 58.584Z" fill="url(#paint7_linear_10_530)"/>
<path d="M168.816 58.584V96.6902C168.813 98.3967 168.432 100.081 167.7 101.622L166.173 104.811C165.252 106.731 163.808 108.352 162.008 109.486C160.208 110.62 158.124 111.222 155.997 111.222H135.531C134.138 111.222 132.757 110.96 131.46 110.45L128.293 109.233C125.155 108.007 121.814 107.382 118.445 107.392H51.8425C48.4737 107.382 45.1332 108.007 41.9948 109.233L38.8272 110.45C37.5305 110.96 36.1499 111.222 34.7568 111.222H14.3559C12.2314 111.221 10.1506 110.618 8.35318 109.484C6.55575 108.35 5.11482 106.73 4.19639 104.811L2.67001 101.622C1.92897 100.084 1.5473 98.3977 1.55395 96.6902V58.584C1.55749 55.6853 2.66723 52.8977 4.65595 50.7918L8.84119 46.4025C7.19992 49.4109 35.3805 60.1293 48.3794 61.017C61.7393 61.9212 109.008 61.5102 121.99 61.017C134.973 60.5238 159.132 52.4357 162.415 47.3396L165.697 50.7918C167.692 52.8951 168.808 55.6831 168.816 58.584Z" fill="url(#paint8_linear_10_530)"/>
<path d="M143.672 31.4099C139.339 31.1798 132.183 30.9496 124.469 30.7359L115.836 30.5222C106.365 30.3085 96.9446 30.1605 90.8719 30.0783H85.1766C78.431 30.0783 39.894 30.7195 26.6818 31.4592C28.7006 24.3739 35.5775 12.9322 39.2211 6.55379C42.5621 5.57732 45.9936 4.94389 49.4626 4.66327C53.4673 4.21941 58.0629 3.93994 62.921 3.77555C66.6959 3.64404 70.635 3.57828 74.5905 3.5454C78.1356 3.5454 81.7136 3.5454 85.1766 3.5454H94.5155C104.329 3.44969 114.14 3.94376 123.894 5.02494C126.346 5.33631 128.767 5.85322 131.132 6.57022C132.38 8.75664 134.021 11.502 135.728 14.5433C137.09 16.9763 138.469 19.475 139.732 22.0231C140.701 23.9794 141.587 25.8699 142.309 27.6453C142.832 28.8743 143.286 30.1311 143.672 31.4099Z" fill="url(#paint9_linear_10_530)"/>
<path d="M121.99 61.017C121.99 61.017 99.39 62.7925 85.1766 62.7925C69.0265 62.7925 48.363 61.017 48.363 61.017C48.363 61.017 36.1355 67.2146 36.1355 74.2835C36.1355 79.7085 43.193 94.3887 46.4591 100.882C46.8334 101.771 47.4481 102.538 48.234 103.095C49.0198 103.653 49.9456 103.98 50.9069 104.039H119.446C120.405 103.977 121.327 103.649 122.11 103.091C122.893 102.534 123.505 101.769 123.878 100.882C127.16 94.3065 134.218 79.7085 134.218 74.2835C134.218 67.2146 121.99 61.017 121.99 61.017Z" fill="url(#paint10_linear_10_530)" stroke="#C2C5D0" stroke-width="0.42913" stroke-miterlimit="10"/>
<path d="M165.024 91.9721C165.278 94.3765 165.278 96.801 165.024 99.2054C164.565 102.164 163.58 106.307 158.459 107.425C153.339 108.543 141.538 107.885 141.538 107.885C141.538 107.885 144.82 99.3698 147.972 96.2463C151.123 93.1229 165.024 91.9721 165.024 91.9721Z" fill="url(#paint11_linear_10_530)" stroke="#C2C5D0" stroke-width="0.42913" stroke-miterlimit="10"/>
<path d="M6.05103 91.9721C5.79742 94.3765 5.79742 96.801 6.05103 99.2054C6.51059 102.164 7.49535 106.307 12.6161 107.425C17.7369 108.543 29.5376 107.885 29.5376 107.885C29.5376 107.885 26.2551 99.3698 23.1202 96.2463C19.9854 93.1229 6.05103 91.9721 6.05103 91.9721Z" fill="url(#paint12_linear_10_530)" stroke="#C2C5D0" stroke-width="0.42913" stroke-miterlimit="10"/>
<path d="M155.702 106.866C159.092 106.866 161.84 104.113 161.84 100.718C161.84 97.3222 159.092 94.5695 155.702 94.5695C152.312 94.5695 149.564 97.3222 149.564 100.718C149.564 104.113 152.312 106.866 155.702 106.866Z" fill="url(#paint13_linear_10_530)"/>
<path d="M155.702 104.713C157.905 104.713 159.69 102.924 159.69 100.718C159.69 98.5116 157.905 96.7231 155.702 96.7231C153.499 96.7231 151.714 98.5116 151.714 100.718C151.714 102.924 153.499 104.713 155.702 104.713Z" fill="url(#paint14_linear_10_530)"/>
<path d="M15.3734 106.866C18.7636 106.866 21.5118 104.113 21.5118 100.718C21.5118 97.3222 18.7636 94.5695 15.3734 94.5695C11.9833 94.5695 9.23509 97.3222 9.23509 100.718C9.23509 104.113 11.9833 106.866 15.3734 106.866Z" fill="url(#paint15_linear_10_530)"/>
<path d="M15.3734 104.713C17.5761 104.713 19.3617 102.924 19.3617 100.718C19.3617 98.5116 17.5761 96.7231 15.3734 96.7231C13.1708 96.7231 11.3852 98.5116 11.3852 100.718C11.3852 102.924 13.1708 104.713 15.3734 104.713Z" fill="url(#paint16_linear_10_530)"/>
<path d="M127.603 60.5074C129.343 64.8967 136.565 67.9215 140.734 68.727C144.902 69.5326 164.056 70.0093 167.355 64.946C170.654 59.8827 163.761 53.2248 163.761 53.2248L127.603 60.5074Z" fill="url(#paint17_linear_10_530)"/>
<path d="M42.7006 60.5074C40.9608 64.8967 33.7393 67.9215 29.5704 68.727C25.4016 69.5326 6.24799 69.9764 2.94904 64.9131C-0.349915 59.8499 6.59266 53.192 6.59266 53.192L42.7006 60.5074Z" fill="url(#paint18_linear_10_530)"/>
<path d="M11.2539 49.4603C8.79195 49.1479 5.96897 50.9727 4.68878 54.4907C4.51109 54.9603 4.37382 55.4443 4.27846 55.9373C3.94642 57.8616 4.28349 59.8418 5.23337 61.5472C6.18326 63.2525 7.68848 64.5799 9.4977 65.3077C16.6044 68.2668 26.1566 68.2832 29.1929 67.9873C33.0827 67.5763 41.88 62.661 42.8319 60.5074C43.7838 58.3539 15.0616 49.937 11.2539 49.4603Z" fill="url(#paint19_linear_10_530)"/>
<path style="mix-blend-mode:screen" d="M19.4602 58.2388C19.4602 59.237 19.1647 60.2127 18.611 61.0427C18.0574 61.8726 17.2704 62.5195 16.3497 62.9015C15.429 63.2835 14.4159 63.3834 13.4385 63.1887C12.4611 62.9939 11.5633 62.5133 10.8586 61.8075C10.1539 61.1017 9.67404 60.2024 9.47962 59.2234C9.2852 58.2444 9.38498 57.2296 9.76635 56.3075C10.1477 55.3853 10.7935 54.5971 11.6221 54.0425C12.4508 53.4879 13.4249 53.192 14.4215 53.192C15.7565 53.1963 17.0356 53.7294 17.9796 54.6749C18.9236 55.6205 19.4559 56.9016 19.4602 58.2388Z" fill="url(#paint20_radial_10_530)"/>
<path style="mix-blend-mode:screen" d="M30.0956 61.017C30.0924 61.8487 29.8432 62.6607 29.3796 63.3506C28.9159 64.0405 28.2586 64.5774 27.4905 64.8934C26.7225 65.2094 25.8782 65.2904 25.0643 65.1262C24.2503 64.9619 23.5032 64.5598 22.9172 63.9706C22.3312 63.3814 21.9327 62.6315 21.7719 61.8156C21.6111 60.9997 21.6953 60.1544 22.0137 59.3863C22.3322 58.6183 22.8708 57.962 23.5614 57.5003C24.252 57.0386 25.0637 56.7922 25.894 56.7921C26.4471 56.7921 26.9948 56.9015 27.5057 57.1141C28.0165 57.3266 28.4804 57.638 28.8708 58.0306C29.2612 58.4231 29.5703 58.889 29.7805 59.4015C29.9907 59.914 30.0978 60.463 30.0956 61.017Z" fill="url(#paint21_radial_10_530)"/>
<path d="M159.099 49.4603C161.578 49.1479 164.401 50.9727 165.665 54.4907C165.772 54.7748 165.859 55.0659 165.927 55.3619C166.414 57.3514 166.171 59.4497 165.244 61.2751C164.316 63.1005 162.764 64.5315 160.872 65.3077C154.564 67.5625 147.856 68.4752 141.177 67.9873C137.287 67.5763 128.473 62.661 127.521 60.5074C126.569 58.3539 155.292 49.937 159.099 49.4603Z" fill="url(#paint22_linear_10_530)"/>
<path style="mix-blend-mode:screen" d="M150.909 58.2388C150.909 59.237 151.205 60.2127 151.759 61.0427C152.312 61.8726 153.099 62.5195 154.02 62.9015C154.941 63.2835 155.954 63.3834 156.931 63.1887C157.909 62.9939 158.806 62.5133 159.511 61.8075C160.216 61.1017 160.696 60.2024 160.89 59.2234C161.084 58.2444 160.985 57.2296 160.603 56.3075C160.222 55.3853 159.576 54.5971 158.748 54.0425C157.919 53.4879 156.945 53.192 155.948 53.192C154.612 53.192 153.33 53.7237 152.385 54.6701C151.44 55.6166 150.909 56.9003 150.909 58.2388Z" fill="url(#paint23_radial_10_530)"/>
<path style="mix-blend-mode:screen" d="M140.258 61.017C140.261 61.8487 140.51 62.6607 140.974 63.3506C141.437 64.0405 142.095 64.5774 142.863 64.8934C143.631 65.2094 144.475 65.2904 145.289 65.1262C146.103 64.9619 146.85 64.5598 147.436 63.9706C148.022 63.3814 148.421 62.6315 148.581 61.8156C148.742 60.9997 148.658 60.1544 148.34 59.3863C148.021 58.6183 147.482 57.962 146.792 57.5003C146.101 57.0386 145.29 56.7922 144.459 56.7921C143.906 56.7921 143.358 56.9015 142.848 57.1141C142.337 57.3266 141.873 57.638 141.482 58.0306C141.092 58.4231 140.783 58.889 140.573 59.4015C140.363 59.914 140.256 60.463 140.258 61.017Z" fill="url(#paint24_radial_10_530)"/>
<path style="mix-blend-mode:screen" d="M140.258 27.6618C131.399 28.8878 122.431 29.1139 113.521 28.3358C98.0934 26.8727 82.1731 14.0172 76.7897 5.07426C80.0723 5.07426 83.4697 5.07426 86.6374 5.07426H95.3853C104.585 4.9969 113.781 5.46349 122.926 6.4716C125.222 6.76317 127.489 7.24708 129.704 7.91825C130.87 9.97316 132.412 12.5706 134.004 15.3817C135.285 17.6667 136.581 20.0669 137.763 22.4012C138.748 24.2095 139.535 26.0014 140.258 27.6618Z" fill="url(#paint25_linear_10_530)"/>
<path style="mix-blend-mode:screen" d="M21.6923 34.9115C15.8166 40.7967 10.8435 44.4298 12.8131 46.419C14.7826 48.4081 42.7991 59.7019 57.5541 59.7019C72.3091 59.7019 111.979 62.2828 123.205 58.7648C134.431 55.2468 156.342 49.5753 158.164 47.7012C159.986 45.8272 147.84 34.8457 147.84 34.8457L21.6923 34.9115Z" fill="url(#paint26_linear_10_530)"/>
<path style="mix-blend-mode:screen" d="M158.952 31.7387H161.348C161.867 31.7387 162.38 31.6361 162.859 31.4368C163.338 31.2375 163.773 30.9454 164.139 30.5773C164.505 30.2092 164.795 29.7723 164.992 29.2918C165.189 28.8112 165.289 28.2964 165.287 27.7769C165.287 26.7305 164.872 25.7269 164.133 24.987C163.395 24.2471 162.393 23.8315 161.348 23.8315H158.952C157.907 23.8315 156.905 24.2471 156.166 24.987C155.428 25.7269 155.013 26.7305 155.013 27.7769C155.011 28.2964 155.111 28.8112 155.308 29.2918C155.505 29.7723 155.795 30.2092 156.161 30.5773C156.527 30.9454 156.962 31.2375 157.441 31.4368C157.919 31.6361 158.433 31.7387 158.952 31.7387Z" fill="url(#paint27_linear_10_530)"/>
<path style="mix-blend-mode:screen" d="M9.1038 31.7387H11.5165C12.0351 31.7387 12.5487 31.6361 13.0277 31.4368C13.5067 31.2375 13.9416 30.9454 14.3076 30.5773C14.6736 30.2092 14.9634 29.7723 15.1604 29.2918C15.3574 28.8112 15.4577 28.2964 15.4555 27.7769C15.4555 26.7305 15.0405 25.7269 14.3018 24.987C13.5631 24.2471 12.5612 23.8315 11.5165 23.8315H9.1038C8.06043 23.8358 7.06102 24.2528 6.32324 24.9918C5.58546 25.7308 5.16907 26.7318 5.16475 27.7769C5.16474 28.8248 5.57922 29.83 6.31747 30.5725C7.05571 31.3151 8.05759 31.7344 9.1038 31.7387Z" fill="url(#paint28_linear_10_530)"/>
<path d="M91.2822 75.1219C91.2822 76.2964 90.9343 77.4444 90.2825 78.4207C89.6307 79.397 88.7044 80.1576 87.6208 80.6063C86.5372 81.055 85.345 81.1715 84.1953 80.9412C83.0455 80.7109 81.9898 80.144 81.1618 79.3124C80.3338 78.4808 79.7708 77.4219 79.5441 76.2696C79.3173 75.1173 79.437 73.9235 79.888 72.8394C80.3389 71.7553 81.1009 70.8296 82.0774 70.1795C83.0539 69.5294 84.2011 69.1841 85.3736 69.1873C86.9422 69.1917 88.445 69.8189 89.5526 70.9313C90.6602 72.0438 91.2822 73.5508 91.2822 75.1219Z" fill="url(#paint29_linear_10_530)"/>
<path d="M80.7124 75.1219C80.7124 74.2025 80.9844 73.3037 81.4941 72.5389C82.0037 71.7742 82.7282 71.1779 83.5759 70.8253C84.4237 70.4727 85.3568 70.3797 86.2573 70.5578C87.1579 70.736 87.9855 71.1775 88.6358 71.8265C89.286 72.4755 89.7297 73.3029 89.9107 74.2043C90.0918 75.1056 90.0022 76.0405 89.6531 76.8909C89.3041 77.7413 88.7113 78.469 87.9496 78.9822C87.188 79.4954 86.2916 79.771 85.3736 79.7742C84.7623 79.7764 84.1565 79.6576 83.5911 79.4248C83.0257 79.192 82.5117 78.8496 82.0786 78.4174C81.6456 77.9852 81.302 77.4716 81.0675 76.9061C80.8331 76.3406 80.7124 75.7343 80.7124 75.1219Z" fill="url(#paint30_linear_10_530)"/>
</g>
<defs>
<linearGradient id="paint0_linear_10_530" x1="176.809" y1="9.82521" x2="173.944" y2="119.672" gradientUnits="userSpaceOnUse">
<stop stop-color="#1890D0"/>
<stop offset="1" stop-color="#0A78B3"/>
</linearGradient>
<linearGradient id="paint1_linear_10_530" x1="207.156" y1="62.2335" x2="205.476" y2="126.757" gradientUnits="userSpaceOnUse">
<stop stop-color="#0A6A9D"/>
<stop offset="1" stop-color="#11BAD0"/>
</linearGradient>
<linearGradient id="paint2_linear_10_530" x1="83.519" y1="114.51" x2="83.519" y2="106.685" gradientUnits="userSpaceOnUse">
<stop stop-color="#323845"/>
<stop offset="1" stop-color="#0B0C10"/>
</linearGradient>
<linearGradient id="paint3_linear_10_530" x1="15.4227" y1="125.114" x2="15.4227" y2="107.425" gradientUnits="userSpaceOnUse">
<stop stop-color="#323845"/>
<stop offset="1" stop-color="#0B0C10"/>
</linearGradient>
<linearGradient id="paint4_linear_10_530" x1="154.931" y1="125.114" x2="154.931" y2="107.425" gradientUnits="userSpaceOnUse">
<stop stop-color="#323845"/>
<stop offset="1" stop-color="#0B0C10"/>
</linearGradient>
<linearGradient id="paint5_linear_10_530" x1="15.9479" y1="22.8944" x2="15.6844" y2="32.8401" gradientUnits="userSpaceOnUse">
<stop stop-color="#EBEBEB"/>
<stop offset="1" stop-color="#D1D1D1"/>
</linearGradient>
<linearGradient id="paint6_linear_10_530" x1="154.422" y1="22.8944" x2="154.669" y2="32.8401" gradientUnits="userSpaceOnUse">
<stop stop-color="#EBEBEB"/>
<stop offset="1" stop-color="#D1D1D1"/>
</linearGradient>
<linearGradient id="paint7_linear_10_530" x1="85.1931" y1="-0.30138" x2="85.1931" y2="66.8694" gradientUnits="userSpaceOnUse">
<stop stop-color="#E5E5E5"/>
<stop offset="0.5" stop-color="#D1D1D1"/>
<stop offset="1" stop-color="#E3E3E3"/>
</linearGradient>
<linearGradient id="paint8_linear_10_530" x1="2.48947" y1="78.7878" x2="165.303" y2="78.7878" gradientUnits="userSpaceOnUse">
<stop stop-color="white"/>
<stop offset="0.52" stop-color="#E3E3E3"/>
<stop offset="0.7" stop-color="#DFDFDF"/>
<stop offset="0.89" stop-color="#D2D2D2"/>
</linearGradient>
<linearGradient id="paint9_linear_10_530" x1="122.877" y1="-0.169864" x2="44.4049" y2="47.4407" gradientUnits="userSpaceOnUse">
<stop stop-color="#323845"/>
<stop offset="1" stop-color="#0B0C10"/>
</linearGradient>
<linearGradient id="paint10_linear_10_530" x1="85.4721" y1="103.562" x2="85.1098" y2="66.5242" gradientUnits="userSpaceOnUse">
<stop stop-color="#323845"/>
<stop offset="1" stop-color="#0B0C10"/>
</linearGradient>
<linearGradient id="paint11_linear_10_530" x1="155.374" y1="108.428" x2="151.949" y2="94.2597" gradientUnits="userSpaceOnUse">
<stop stop-color="#323845"/>
<stop offset="1" stop-color="#0B0C10"/>
</linearGradient>
<linearGradient id="paint12_linear_10_530" x1="15.7017" y1="108.428" x2="19.126" y2="94.2597" gradientUnits="userSpaceOnUse">
<stop stop-color="#323845"/>
<stop offset="1" stop-color="#0B0C10"/>
</linearGradient>
<linearGradient id="paint13_linear_10_530" x1="156.129" y1="120.955" x2="155.585" y2="95.4737" gradientUnits="userSpaceOnUse">
<stop stop-color="#323845"/>
<stop offset="1" stop-color="#0B0C10"/>
</linearGradient>
<linearGradient id="paint14_linear_10_530" x1="155.653" y1="104.565" x2="155.735" y2="97.7916" gradientUnits="userSpaceOnUse">
<stop stop-color="#EBEFF7"/>
<stop offset="1" stop-color="#B3B6C2"/>
</linearGradient>
<linearGradient id="paint15_linear_10_530" x1="14.9467" y1="120.955" x2="15.4901" y2="95.4737" gradientUnits="userSpaceOnUse">
<stop stop-color="#323845"/>
<stop offset="1" stop-color="#0B0C10"/>
</linearGradient>
<linearGradient id="paint16_linear_10_530" x1="15.4063" y1="104.565" x2="15.3404" y2="97.7916" gradientUnits="userSpaceOnUse">
<stop stop-color="#EBEFF7"/>
<stop offset="1" stop-color="#B3B6C2"/>
</linearGradient>
<linearGradient id="paint17_linear_10_530" x1="150.417" y1="70.9956" x2="146.795" y2="55.9893" gradientUnits="userSpaceOnUse">
<stop stop-color="#323845"/>
<stop offset="1" stop-color="#0B0C10"/>
</linearGradient>
<linearGradient id="paint18_linear_10_530" x1="19.9526" y1="70.9628" x2="23.5744" y2="55.9893" gradientUnits="userSpaceOnUse">
<stop stop-color="#323845"/>
<stop offset="1" stop-color="#0B0C10"/>
</linearGradient>
<linearGradient id="paint19_linear_10_530" x1="19.9526" y1="68.201" x2="25.2527" y2="53.0987" gradientUnits="userSpaceOnUse">
<stop stop-color="#EBEFF7"/>
<stop offset="0.7" stop-color="#B3B6C2"/>
<stop offset="1" stop-color="#7D7F87"/>
</linearGradient>
<radialGradient id="paint20_radial_10_530" cx="0" cy="0" r="1" gradientUnits="userSpaceOnUse" gradientTransform="translate(14.4215 58.2388) scale(5.0387 5.04685)">
<stop stop-color="#EBEFF7"/>
<stop offset="1" stop-color="#B3B6C2"/>
</radialGradient>
<radialGradient id="paint21_radial_10_530" cx="0" cy="0" r="1" gradientUnits="userSpaceOnUse" gradientTransform="translate(25.894 61.017) scale(4.20165 4.20845)">
<stop stop-color="#EBEFF7"/>
<stop offset="1" stop-color="#B3B6C2"/>
</radialGradient>
<linearGradient id="paint22_linear_10_530" x1="149.416" y1="68.7764" x2="145.547" y2="52.7838" gradientUnits="userSpaceOnUse">
<stop stop-color="#EBEFF7"/>
<stop offset="0.7" stop-color="#B3B6C2"/>
<stop offset="1" stop-color="#7D7F87"/>
</linearGradient>
<radialGradient id="paint23_radial_10_530" cx="0" cy="0" r="1" gradientUnits="userSpaceOnUse" gradientTransform="translate(155.932 58.2388) rotate(180) scale(5.0387 5.04685)">
<stop stop-color="#EBEFF7"/>
<stop offset="1" stop-color="#B3B6C2"/>
</radialGradient>
<radialGradient id="paint24_radial_10_530" cx="0" cy="0" r="1" gradientUnits="userSpaceOnUse" gradientTransform="translate(144.459 61.017) rotate(180) scale(4.20165 4.20845)">
<stop stop-color="#EBEFF7"/>
<stop offset="1" stop-color="#B3B6C2"/>
</radialGradient>
<linearGradient id="paint25_linear_10_530" x1="128.408" y1="-20.9162" x2="105.882" y2="21.2038" gradientUnits="userSpaceOnUse">
<stop stop-color="#363D4A"/>
<stop offset="1" stop-color="#0F1015"/>
</linearGradient>
<linearGradient id="paint26_linear_10_530" x1="85.2259" y1="60.0142" x2="85.4399" y2="37.8212" gradientUnits="userSpaceOnUse">
<stop stop-color="#2C3E63"/>
<stop offset="1"/>
</linearGradient>
<linearGradient id="paint27_linear_10_530" x1="160.15" y1="23.9794" x2="160.15" y2="30.6702" gradientUnits="userSpaceOnUse">
<stop stop-color="#2C3E63"/>
<stop offset="1"/>
</linearGradient>
<linearGradient id="paint28_linear_10_530" x1="10.3019" y1="23.9794" x2="10.3019" y2="30.6702" gradientUnits="userSpaceOnUse">
<stop stop-color="#2C3E63"/>
<stop offset="1"/>
</linearGradient>
<linearGradient id="paint29_linear_10_530" x1="85.3572" y1="69.1545" x2="85.3572" y2="76.322" gradientUnits="userSpaceOnUse">
<stop stop-color="#EBEFF7"/>
<stop offset="1" stop-color="#B3B6C2"/>
</linearGradient>
<linearGradient id="paint30_linear_10_530" x1="85.3572" y1="79.7907" x2="85.3572" y2="74.1849" gradientUnits="userSpaceOnUse">
<stop stop-color="#EBEFF7"/>
<stop offset="1" stop-color="#B3B6C2"/>
</linearGradient>
<clipPath id="clip0_10_530">
<rect width="255.972" height="129.492" fill="white" transform="translate(0.0275574 0.0274048)"/>
</clipPath>
</defs>
</svg>
