<svg width="21" height="21" viewBox="0 0 21 21" fill="none" xmlns="http://www.w3.org/2000/svg">
<g clip-path="url(#clip0_95_907)">
<path d="M19.075 5.93251L11.97 1.30376C11.5318 1.02118 11.0214 0.870895 10.5 0.870895C9.97858 0.870895 9.46821 1.02118 9.03 1.30376L1.925 5.93251C1.61155 6.11932 1.35073 6.38276 1.16706 6.69806C0.983386 7.01337 0.882886 7.37019 0.875 7.73501V20.125H8.75V15.2513H12.25V20.125H20.125V7.73501C20.1171 7.37019 20.0166 7.01337 19.8329 6.69806C19.6493 6.38276 19.3885 6.11932 19.075 5.93251ZM18.375 18.375H14V13.5013H7V18.375H2.625V7.73501C2.63139 7.66365 2.65556 7.59503 2.6953 7.53541C2.73504 7.4758 2.78909 7.4271 2.8525 7.39376L9.9575 2.76501C10.1132 2.67082 10.2918 2.62102 10.4738 2.62102C10.6557 2.62102 10.8343 2.67082 10.99 2.76501L18.095 7.39376C18.1584 7.4271 18.2125 7.4758 18.2522 7.53541C18.2919 7.59503 18.3161 7.66365 18.3225 7.73501L18.375 18.375Z" fill="#1494CB"/>
</g>
<defs>
<clipPath id="clip0_95_907">
<rect width="21" height="21" fill="white"/>
</clipPath>
</defs>
</svg>
