<svg width="116" height="78" viewBox="0 0 116 78" fill="none" xmlns="http://www.w3.org/2000/svg">
<g clip-path="url(#clip0_5294_9246)">
<path d="M111.069 15.0243L104.682 14.7523C115.347 9.67704 110.896 1.5 110.896 1.5L75.5938 19.0301C75.5938 19.0301 79.2688 29.2946 84.3919 34.0244C89.5149 38.7542 97.3943 33.9987 97.3943 33.9987L92.6571 30.4596C103.458 33.4621 105.968 26.417 105.968 26.417L98.7908 23.8812C110.992 24.7963 111.069 15.0243 111.069 15.0243Z" fill="#A5E9F9"/>
<path d="M82.0215 19.0374L98.0338 12.0327L98.982 11.6211L99.0334 12.6905C99.0363 12.8733 99.0289 13.0561 99.0114 13.2381C99.0114 13.4072 98.9746 13.5726 98.9489 13.7379C98.8975 14.0657 98.8251 14.3897 98.7321 14.7082C98.5562 15.3461 98.3097 15.9624 97.9971 16.5457C97.3635 17.6898 96.5091 18.6966 95.4833 19.5078C94.4806 20.3066 93.3662 20.9541 92.1757 21.4299C91.0052 21.8981 89.7915 22.2502 88.5521 22.4809L88.5154 21.033L96.1852 22.1355L97.7177 22.356L96.5932 23.3924C96.1394 23.7964 95.6554 24.165 95.1452 24.4949C93.6547 25.4748 92.0097 26.1967 90.2794 26.6301C87.9721 27.2025 85.5674 27.2628 83.2343 26.8065L83.6643 25.41L87.2181 26.9461L87.7767 27.1887L87.648 27.762C87.6348 27.8235 87.6164 27.8837 87.5929 27.9421C87.5792 27.9834 87.5633 28.0238 87.5451 28.0634C87.511 28.1328 87.4729 28.2003 87.4312 28.2655C87.3574 28.3867 87.2699 28.4989 87.1703 28.5999C86.9919 28.782 86.7905 28.9402 86.5713 29.0703C86.1788 29.2933 85.7533 29.4521 85.3107 29.5407C84.5126 29.6992 83.6968 29.7498 82.8852 29.6914C81.346 29.582 79.821 29.3235 78.3317 28.9197C78.2381 28.8955 78.1502 28.8532 78.0729 28.7951C77.9956 28.7369 77.9306 28.6642 77.8814 28.5809C77.7822 28.4127 77.7538 28.212 77.8025 28.0229C77.8513 27.8339 77.9731 27.6719 78.1413 27.5726C78.3095 27.4734 78.5102 27.445 78.6992 27.4937C80.095 27.8733 81.5237 28.1194 82.966 28.2287C83.6457 28.278 84.3289 28.2384 84.9983 28.1111C85.2891 28.0524 85.5692 27.9495 85.8289 27.8061C85.9308 27.7475 86.0247 27.6758 86.1082 27.593C86.1399 27.5604 86.1683 27.5247 86.1927 27.4864C86.2014 27.4737 86.2088 27.4601 86.2148 27.446C86.2148 27.446 86.2148 27.4276 86.2148 27.4937L86.6227 28.328L83.0542 26.7808L76.9609 24.1457L83.4989 25.3879C85.6224 25.8046 87.8115 25.7507 89.9119 25.2299C90.9575 24.9705 91.9699 24.5919 92.9291 24.1016C93.4087 23.8594 93.8738 23.5894 94.322 23.2931C94.7537 23.0074 95.164 22.6905 95.5495 22.345L95.9574 23.5982L88.2875 22.4956L83.973 21.8782L88.2508 21.0477C89.3964 20.8351 90.5179 20.5089 91.5988 20.0738C92.6569 19.6537 93.6475 19.0804 94.5388 18.3722C95.4206 17.6786 96.1542 16.815 96.6961 15.8327C96.9591 15.3464 97.1674 14.8324 97.3172 14.3002C97.395 14.0375 97.4552 13.7698 97.4972 13.4991C97.5193 13.3668 97.5377 13.2308 97.5487 13.0985C97.5597 12.9662 97.5671 12.8192 97.5671 12.731L98.5667 13.3888L82.0215 19.0374Z" fill="#3B4051"/>
<path d="M111.069 15.0243L104.682 14.7523C115.347 9.67704 110.896 1.5 110.896 1.5L75.5938 19.0301C75.5938 19.0301 79.2688 29.2946 84.3919 34.0244C89.5149 38.7542 97.3943 33.9987 97.3943 33.9987L92.6571 30.4596C103.458 33.4621 105.968 26.417 105.968 26.417L98.7908 23.8812C110.992 24.7963 111.069 15.0243 111.069 15.0243Z" stroke="#3B4051" stroke-width="2.20504" stroke-miterlimit="10" stroke-linecap="round"/>
<path d="M4.93582 15.0243L11.3231 14.7523C0.658035 9.67704 5.10855 1.5 5.10855 1.5L40.426 19.0301C40.426 19.0301 36.7509 29.2946 31.6058 34.0244C26.4607 38.7542 18.5924 33.9987 18.5924 33.9987L23.3516 30.4596C12.5506 33.4621 10.0368 26.417 10.0368 26.417L17.2142 23.8812C5.013 24.7963 4.93582 15.0243 4.93582 15.0243Z" fill="#A5E9F9"/>
<path d="M33.9739 19.0389L17.4361 13.405L18.4394 12.7472C18.4326 12.8696 18.4326 12.9923 18.4394 13.1147C18.4394 13.247 18.4688 13.3829 18.4908 13.5152C18.5364 13.7853 18.5965 14.0528 18.6709 14.3164C18.8241 14.8439 19.0348 15.3529 19.2993 15.8342C19.8374 16.8138 20.5644 17.6769 21.4382 18.3737C22.3292 19.0824 23.3199 19.6558 24.3783 20.0753C25.4579 20.5104 26.5782 20.8366 27.7226 21.0491L32.0041 21.8797L27.6969 22.5045L20.0307 23.607L20.4386 22.3538C20.8284 22.6971 21.2437 23.0104 21.6808 23.2909C22.129 23.5872 22.5941 23.8572 23.0736 24.0995C24.0329 24.5897 25.0453 24.9683 26.0909 25.2277C28.1887 25.7486 30.3751 25.8038 32.4965 25.3894L39.0198 24.1509L32.9265 26.7823L29.3727 28.3295L29.8027 27.5136C29.8027 27.4474 29.8027 27.4768 29.8027 27.4658C29.8087 27.48 29.8161 27.4935 29.8247 27.5062C29.8492 27.5446 29.8775 27.5803 29.9093 27.6128C29.9927 27.6957 30.0866 27.7673 30.1886 27.826C30.4493 27.9699 30.7307 28.0728 31.0228 28.131C31.691 28.2584 32.373 28.2979 33.0515 28.2486C34.4939 28.1399 35.9226 27.8938 37.3182 27.5136C37.4118 27.4895 37.5093 27.484 37.605 27.4976C37.7008 27.5111 37.7929 27.5433 37.8762 27.5925C37.9594 27.6416 38.0322 27.7067 38.0903 27.784C38.1485 27.8612 38.1908 27.9492 38.2149 28.0428C38.2391 28.1364 38.2445 28.2339 38.231 28.3296C38.2174 28.4254 38.1852 28.5175 38.136 28.6008C38.0869 28.684 38.0218 28.7568 37.9446 28.8149C37.8673 28.8731 37.7794 28.9154 37.6857 28.9395C36.1964 29.3434 34.6715 29.6018 33.1323 29.7113C32.3207 29.7697 31.5049 29.719 30.7068 29.5606C30.2642 29.472 29.8386 29.3132 29.4462 29.0902C29.227 28.96 29.0256 28.8019 28.8472 28.6198C28.7487 28.5178 28.6613 28.4057 28.5862 28.2854C28.5445 28.2202 28.5065 28.1527 28.4723 28.0832L28.4135 27.962C28.39 27.9036 28.3716 27.8434 28.3584 27.7819L28.2298 27.2269L28.7884 26.9844L32.3385 25.4335L32.7685 26.83C30.4354 27.2863 28.0307 27.2261 25.7234 26.6536C24.5779 26.3643 23.4685 25.9476 22.4158 25.4115C21.886 25.1432 21.3719 24.845 20.8759 24.5184C20.3658 24.1885 19.8817 23.8199 19.428 23.4159L18.3034 22.3795L19.8359 22.159L27.5058 21.0565L27.469 22.5045C26.2308 22.2737 25.0183 21.9217 23.8491 21.4534C22.6582 20.9785 21.5438 20.3308 20.5415 19.5313C19.505 18.7134 18.6428 17.6963 18.0057 16.5398C17.6931 15.9566 17.4465 15.3403 17.2707 14.7023C17.1794 14.3834 17.107 14.0595 17.0539 13.7321C17.0281 13.5667 17.0061 13.4013 16.9914 13.2323C16.9739 13.0503 16.9665 12.8675 16.9693 12.6847L17.0245 11.6152L17.969 12.0268L33.9739 19.0389Z" fill="#3B4051"/>
<path d="M4.93582 15.0243L11.3231 14.7523C0.658035 9.67704 5.10855 1.5 5.10855 1.5L40.426 19.0301C40.426 19.0301 36.7509 29.2946 31.6058 34.0244C26.4607 38.7542 18.5924 33.9987 18.5924 33.9987L23.3516 30.4596C12.5506 33.4621 10.0368 26.417 10.0368 26.417L17.2142 23.8812C5.013 24.7963 4.93582 15.0243 4.93582 15.0243Z" stroke="#3B4051" stroke-width="2.20504" stroke-miterlimit="10" stroke-linecap="round"/>
<path d="M0 53.6646C2.4182 53.6033 4.83517 53.5531 7.25092 53.5139L14.5018 53.3889L29 53.2309C38.6654 53.1501 48.3321 53.1182 58 53.1354L72.5018 53.1721L79.7491 53.2089L87 53.275L101.502 53.4183C106.335 53.4992 111.167 53.5506 116 53.6646V54.0321C111.167 54.1423 106.335 54.1975 101.502 54.2783L87 54.4216L79.7491 54.4878L72.5018 54.5209L58 54.5613C48.3346 54.5613 38.6679 54.5294 29 54.4657L14.5018 54.3077L7.25092 54.1828C4.83272 54.1436 2.41575 54.0933 0 54.0321L0 53.6646Z" fill="#3B4051"/>
<path d="M39.6455 53.5253H30.2226C29.8918 51.1255 29.6272 48.4721 29.4876 45.5982C29.3442 42.6177 29.3589 39.8541 29.4655 37.3477H39.6455V53.5253Z" fill="#3B4051"/>
<path d="M76.3594 53.5253H85.7823C86.113 51.1255 86.3776 48.4721 86.5173 45.5982C86.6643 42.6177 86.6496 39.8541 86.5393 37.3477H76.3594V53.5253Z" fill="#3B4051"/>
<path d="M84.0982 29.2732L81.7829 25.9914C81.7829 25.9914 78.1556 18.4611 76.3989 16.0687C74.6423 13.6762 73.525 13.7534 67.8176 13.3234C62.1691 12.8971 58.0824 12.9559 58.0015 12.9559C57.9207 12.9559 53.8377 12.9154 48.1854 13.3234C42.5331 13.7313 41.3645 13.6652 39.6041 16.0687C37.8438 18.4722 34.2201 25.9914 34.2201 25.9914L31.9048 29.2732L29.3984 33.1063V44.0654C29.3984 44.0654 30.2327 47.7404 32.8089 49.0194H83.1978C85.7704 47.7331 86.6083 44.0654 86.6083 44.0654V33.1063L84.0982 29.2732Z" fill="#FF6224"/>
<path d="M84.0982 29.2732L81.7829 25.9914C81.7829 25.9914 78.1556 18.4611 76.3989 16.0687C74.6423 13.6762 73.525 13.7534 67.8176 13.3234C62.1691 12.8971 58.0824 12.9559 58.0015 12.9559C57.9207 12.9559 53.8377 12.9154 48.1854 13.3234C42.5331 13.7313 41.3645 13.6652 39.6041 16.0687C37.8438 18.4722 34.2201 25.9914 34.2201 25.9914L31.8975 29.2732L29.3984 33.1063V44.0654C29.3984 44.0654 30.2327 47.7404 32.8089 49.0194H83.1978C85.7704 47.7331 86.6083 44.0654 86.6083 44.0654V33.1063L84.0982 29.2732Z" stroke="#3B4051" stroke-width="2.20504" stroke-miterlimit="10" stroke-linecap="round"/>
<path d="M29.3984 33.1055V39.7537C29.3984 39.7537 31.5226 42.3924 39.5049 43.3552C47.4871 44.3181 47.8693 49.0185 47.8693 49.0185" stroke="#3B4051" stroke-width="2.20504" stroke-miterlimit="10" stroke-linecap="round"/>
<path d="M86.6115 33.1055V39.7537C86.6115 39.7537 84.491 42.3924 76.5088 43.3552C68.5265 44.3181 68.1406 49.0185 68.1406 49.0185" stroke="#3B4051" stroke-width="2.20504" stroke-miterlimit="10" stroke-linecap="round"/>
<path d="M39.7762 33.6945L37.674 31.3315L33.2125 29.832C33.2125 29.832 31.0662 33.5071 32.7825 35.3226C35.2742 37.9392 44.5868 37.8951 44.5868 37.8951C43.9033 34.4663 39.7762 33.6945 39.7762 33.6945Z" fill="white"/>
<path d="M82.7884 29.832L78.3269 31.3315L76.2247 33.6945C76.2247 33.6945 72.0976 34.4663 71.4141 37.8841C71.4141 37.8841 80.7304 37.9245 83.2184 35.3116C84.9347 33.5218 82.7884 29.832 82.7884 29.832Z" fill="white"/>
<path d="M68.7817 15.4152L67.6792 15.3343C62.9714 14.9668 59.3478 14.9668 58.3482 14.9668H57.6867C56.687 14.9668 53.0634 14.9962 48.3556 15.3343L47.2531 15.4152C42.538 15.7606 42.3138 15.8304 41.2701 17.2527C39.9434 19.0645 37.1761 24.6028 36.125 26.7381H79.8951C78.8587 24.5918 76.0877 19.0645 74.75 17.2527C73.7173 15.8341 73.5042 15.7606 68.7817 15.4152Z" fill="#3B4051"/>
<path d="M56.6654 26.7408L68.0582 15.3481L67.6907 15.3187C62.9829 14.9512 59.3593 14.9512 58.3597 14.9512H57.6981C57.2792 14.9512 56.3898 14.9512 55.1587 14.9879L43.3984 26.7482L56.6654 26.7408Z" fill="white"/>
<path d="M59.7188 26.7413H63.5482L73.9523 16.3371C73.4084 15.9072 72.666 15.7418 70.8799 15.5801L59.7188 26.7413Z" fill="white"/>
<path d="M39.3203 28.373C40.2981 28.8548 41.2273 29.4296 42.095 30.0893C42.977 30.7422 43.8031 31.4675 44.5646 32.2576C45.3382 33.0446 46.0428 33.8967 46.6705 34.8044C47.3062 35.7179 47.869 36.6801 48.3536 37.682L47.8465 37.3476H61.8338C61.98 37.3476 62.1202 37.4057 62.2236 37.509C62.327 37.6124 62.3851 37.7526 62.3851 37.8988C62.3851 38.045 62.327 38.1853 62.2236 38.2886C62.1202 38.392 61.98 38.4501 61.8338 38.4501H47.501L47.3467 38.112C46.9689 37.1224 46.5117 36.165 45.9795 35.2491C45.445 34.3224 44.8301 33.4443 44.142 32.6251C43.4635 31.7909 42.7174 31.0141 41.9112 30.3025C41.1116 29.5776 40.2439 28.9315 39.3203 28.373Z" fill="#3B4051"/>
<path d="M76.6852 28.373C75.7589 28.9327 74.8877 29.5787 74.0832 30.3025C73.2771 31.0141 72.531 31.7909 71.8524 32.6251C71.1644 33.4443 70.5495 34.3224 70.0149 35.2491C69.4839 36.165 69.0279 37.1225 68.6514 38.112L68.4934 38.4501H54.1606C54.0144 38.4501 53.8742 38.392 53.7708 38.2886C53.6675 38.1853 53.6094 38.045 53.6094 37.8988C53.6094 37.7526 53.6675 37.6124 53.7708 37.509C53.8742 37.4057 54.0144 37.3476 54.1606 37.3476H68.148L67.6408 37.682C68.1254 36.6801 68.6882 35.7179 69.324 34.8044C69.954 33.8974 70.6597 33.0454 71.4335 32.2576C72.1967 31.4693 73.0226 30.7441 73.9031 30.0893C74.7737 29.43 75.7053 28.8553 76.6852 28.373Z" fill="#3B4051"/>
<path d="M63.0538 42.5832H52.9547C52.4392 42.5831 51.93 42.4691 51.4637 42.2492C50.9974 42.0294 50.5854 41.7093 50.2572 41.3117L47.4531 37.8828H68.5554L65.7513 41.297C65.4246 41.6972 65.0132 42.0202 64.5468 42.2426C64.0804 42.465 63.5705 42.5813 63.0538 42.5832Z" fill="#3B4051"/>
<path d="M59.7211 39.7217C59.7204 40.0617 59.6189 40.3938 59.4295 40.6762C59.24 40.9586 58.9712 41.1784 58.6568 41.308C58.3425 41.4377 57.9968 41.4712 57.6634 41.4044C57.33 41.3376 57.0239 41.1735 56.7837 40.9329C56.5435 40.6922 56.3801 40.3857 56.314 40.0522C56.248 39.7186 56.2822 39.373 56.4125 39.0589C56.5428 38.7449 56.7633 38.4765 57.046 38.2877C57.3288 38.0988 57.6612 37.998 58.0012 37.998C58.2274 37.998 58.4513 38.0427 58.6602 38.1293C58.8691 38.216 59.0589 38.343 59.2187 38.5031C59.3784 38.6632 59.505 38.8532 59.5913 39.0623C59.6775 39.2714 59.7216 39.4955 59.7211 39.7217Z" fill="white"/>
<path d="M67.8886 49.0302H48.1094L52.5525 45.3184H63.4455L67.8886 49.0302Z" fill="#3B4051"/>
<path d="M9.5561 69.3594L5.58312 58.5212H8.81021L11.7481 67.2739H10.3172L13.3007 58.5212H16.4822L12.4483 69.3594H9.5561ZM17.494 69.3594V58.5212H20.5384V69.3594H17.494ZM19.96 69.3594V66.8325H25.7748V69.3594H19.96ZM19.96 65.0667V62.6007H25.2116V65.0667H19.96ZM19.96 61.0481V58.5212H25.6835V61.0481H19.96ZM27.2159 69.3594V58.5212H30.2604V69.3594H27.2159ZM29.6819 69.3594V66.8325H35.4968V69.3594H29.6819ZM29.6819 65.0667V62.6007H34.9336V65.0667H29.6819ZM29.6819 61.0481V58.5212H35.4055V61.0481H29.6819ZM43.5139 69.3594L39.7236 63.712L43.3312 58.5212H46.9997L42.8289 64.1534L42.8136 63.1792L47.1672 69.3594H43.5139ZM36.9379 69.3594V58.5212H39.9823V69.3594H36.9379ZM46.7747 69.3594L50.8999 58.5212H54.0053L58.0848 69.3594H54.9186L51.8894 60.15H52.9854L49.8801 69.3594H46.7747ZM49.4538 67.5327V65.1581H55.5123V67.5327H49.4538ZM60.9631 65.6299L56.8379 58.5212H60.339L63.4595 64.3208H60.8413L63.9619 58.5212H67.3868L63.2312 65.6299H60.9631ZM60.613 69.3594V64.5187H63.6574V69.3594H60.613Z" fill="#FF6224"/>
<path d="M72.9782 69.542C72.1461 69.542 71.3698 69.405 70.6493 69.131C69.9389 68.8469 69.3148 68.4511 68.7769 67.9437C68.2391 67.4363 67.8179 66.8426 67.5135 66.1627C67.2192 65.4727 67.072 64.7268 67.072 63.9251C67.072 63.1132 67.2192 62.3673 67.5135 61.6874C67.8179 61.0075 68.234 60.4189 68.7617 59.9216C69.2996 59.4244 69.9237 59.0388 70.634 58.7648C71.3444 58.4806 72.1157 58.3385 72.9478 58.3385C73.7901 58.3385 74.5613 58.4705 75.2616 58.7343C75.9618 58.9982 76.5707 59.3635 77.0882 59.8303L75.0637 61.8701C74.8201 61.6062 74.5208 61.3982 74.1656 61.246C73.8205 61.0937 73.4146 61.0176 72.9478 61.0176C72.5419 61.0176 72.1664 61.0836 71.8214 61.2155C71.4865 61.3474 71.1973 61.5403 70.9537 61.794C70.7101 62.0477 70.5173 62.3572 70.3753 62.7225C70.2433 63.0777 70.1774 63.4786 70.1774 63.9251C70.1774 64.3817 70.2433 64.7927 70.3753 65.1581C70.5173 65.5132 70.7101 65.8177 70.9537 66.0714C71.1973 66.3251 71.4865 66.523 71.8214 66.6651C72.1664 66.797 72.5419 66.8629 72.9478 66.8629C73.4045 66.8629 73.8104 66.7919 74.1656 66.6498C74.5309 66.5078 74.8455 66.2997 75.1093 66.0257L77.1491 68.0655C76.6113 68.5323 76.0075 68.8976 75.3377 69.1615C74.6679 69.4152 73.8814 69.542 72.9782 69.542ZM77.1298 69.3594L81.255 58.5212H84.3604L88.4399 69.3594H85.2737L82.2445 60.15H83.3405L80.2352 69.3594H77.1298ZM79.8089 67.5327V65.1581H85.8674V67.5327H79.8089ZM91.7746 69.3594V67.1674H93.7687C94.1544 67.1674 94.4639 67.0659 94.6973 66.8629C94.9307 66.6498 95.0474 66.3606 95.0474 65.9953C95.0474 65.7517 94.9916 65.5437 94.8799 65.3712C94.7785 65.1885 94.6313 65.0515 94.4385 64.9602C94.2558 64.8688 94.0326 64.8232 93.7687 64.8232H91.7746V62.7225H93.6317C93.9565 62.7225 94.2254 62.6413 94.4385 62.479C94.6516 62.3166 94.7582 62.0629 94.7582 61.7179C94.7582 61.3728 94.6516 61.1191 94.4385 60.9567C94.2254 60.7944 93.9565 60.7132 93.6317 60.7132H91.7746V58.5212H94.4842C95.1438 58.5212 95.7172 58.6481 96.2043 58.9018C96.7015 59.1453 97.0872 59.4853 97.3612 59.9216C97.6352 60.3479 97.7722 60.84 97.7722 61.3982C97.7722 62.1694 97.4982 62.7986 96.9502 63.2857C96.4022 63.7728 95.6005 64.0519 94.5451 64.123L94.5146 63.0726C95.6613 63.1437 96.5392 63.4583 97.148 64.0164C97.7569 64.5745 98.0614 65.29 98.0614 66.1627C98.0614 66.7919 97.9041 67.3501 97.5895 67.8372C97.2749 68.3141 96.8335 68.6896 96.2652 68.9636C95.707 69.2274 95.0525 69.3594 94.3015 69.3594H91.7746ZM89.3086 69.3594V58.5212H92.2922V69.3594H89.3086ZM102.636 69.542C101.712 69.542 100.906 69.4101 100.215 69.1463C99.5355 68.8723 98.9063 68.441 98.3279 67.8524L100.231 65.9496C100.626 66.3251 101.042 66.6143 101.479 66.8173C101.915 67.0101 102.382 67.1065 102.879 67.1065C103.295 67.1065 103.61 67.0456 103.823 66.9238C104.036 66.7919 104.143 66.6143 104.143 66.3911C104.143 66.1678 104.051 65.9851 103.869 65.8431C103.686 65.6908 103.443 65.5589 103.138 65.4473C102.844 65.3255 102.514 65.2037 102.149 65.082C101.793 64.9602 101.438 64.813 101.083 64.6405C100.728 64.468 100.398 64.26 100.094 64.0164C99.7994 63.7627 99.5609 63.4532 99.3782 63.0878C99.1955 62.7124 99.1042 62.2557 99.1042 61.7179C99.1042 61.0176 99.2717 60.4138 99.6065 59.9064C99.9414 59.399 100.413 59.0134 101.022 58.7495C101.631 58.4755 102.347 58.3385 103.169 58.3385C103.98 58.3385 104.731 58.4705 105.421 58.7343C106.122 58.988 106.7 59.3533 107.157 59.8303L105.239 61.7331C104.904 61.4083 104.569 61.1699 104.234 61.0176C103.899 60.8553 103.534 60.7741 103.138 60.7741C102.823 60.7741 102.57 60.8248 102.377 60.9263C102.194 61.0278 102.103 61.18 102.103 61.383C102.103 61.5961 102.194 61.7737 102.377 61.9157C102.56 62.0477 102.798 62.1694 103.092 62.2811C103.397 62.3927 103.727 62.5094 104.082 62.6312C104.447 62.753 104.807 62.9001 105.163 63.0726C105.518 63.235 105.843 63.4481 106.137 63.712C106.441 63.9657 106.685 64.2853 106.868 64.671C107.05 65.0566 107.142 65.5234 107.142 66.0714C107.142 67.1775 106.746 68.035 105.954 68.6439C105.173 69.2427 104.067 69.542 102.636 69.542Z" fill="#3B4051"/>
<path d="M8.12577 73.1758L9.15729 76.1007H9.19801L10.2295 73.1758H10.6707L9.39482 76.6504H8.96049L7.68465 73.1758H8.12577ZM11.2119 76.6504V73.1758H13.3088V73.549H11.6326V74.7231H13.2003V75.0963H11.6326V76.2771H13.336V76.6504H11.2119ZM14.0672 76.6504V73.1758H16.1642V73.549H14.488V74.7231H16.0556V75.0963H14.488V76.2771H16.1914V76.6504H14.0672ZM16.9226 76.6504V73.1758H17.3433V74.8995H17.3841L18.9449 73.1758H19.4946L18.0355 74.7434L19.4946 76.6504H18.9856L17.7777 75.0352L17.3433 75.5239V76.6504H16.9226ZM20.1817 76.6504H19.7406L21.0164 73.1758H21.4508L22.7266 76.6504H22.2855L21.2472 73.7255H21.22L20.1817 76.6504ZM20.3446 75.2931H22.1226V75.6664H20.3446V75.2931ZM22.6146 73.1758H23.0965L24.0601 74.7977H24.1008L25.0645 73.1758H25.5463L24.2909 75.2185V76.6504H23.8701V75.2185L22.6146 73.1758ZM30.2302 74.2616H29.8094C29.7846 74.1406 29.741 74.0343 29.6788 73.9426C29.6177 73.851 29.5431 73.7741 29.4549 73.7119C29.3678 73.6486 29.2711 73.6011 29.1647 73.5694C29.0584 73.5377 28.9476 73.5219 28.8322 73.5219C28.6218 73.5219 28.4313 73.575 28.2605 73.6814C28.0908 73.7877 27.9556 73.9443 27.855 74.1513C27.7554 74.3583 27.7057 74.6122 27.7057 74.9131C27.7057 75.2139 27.7554 75.4679 27.855 75.6749C27.9556 75.8818 28.0908 76.0385 28.2605 76.1448C28.4313 76.2511 28.6218 76.3043 28.8322 76.3043C28.9476 76.3043 29.0584 76.2885 29.1647 76.2568C29.2711 76.2251 29.3678 76.1782 29.4549 76.116C29.5431 76.0526 29.6177 75.9751 29.6788 75.8835C29.741 75.7908 29.7846 75.6845 29.8094 75.5646H30.2302C30.1985 75.7422 30.1408 75.9011 30.0571 76.0413C29.9734 76.1816 29.8694 76.3009 29.745 76.3993C29.6206 76.4966 29.4809 76.5707 29.3259 76.6215C29.1721 76.6724 29.0075 76.6979 28.8322 76.6979C28.5359 76.6979 28.2723 76.6255 28.0416 76.4807C27.8109 76.336 27.6293 76.1301 27.497 75.8632C27.3647 75.5962 27.2985 75.2795 27.2985 74.9131C27.2985 74.5466 27.3647 74.2299 27.497 73.963C27.6293 73.6961 27.8109 73.4902 28.0416 73.3454C28.2723 73.2007 28.5359 73.1283 28.8322 73.1283C29.0075 73.1283 29.1721 73.1537 29.3259 73.2046C29.4809 73.2555 29.6206 73.3302 29.745 73.4286C29.8694 73.5258 29.9734 73.6446 30.0571 73.7849C30.1408 73.924 30.1985 74.0829 30.2302 74.2616ZM30.9101 76.6504V73.1758H32.0841C32.3556 73.1758 32.5784 73.2222 32.7526 73.3149C32.9268 73.4065 33.0557 73.5326 33.1394 73.6932C33.2231 73.8538 33.265 74.0365 33.265 74.2412C33.265 74.446 33.2231 74.6275 33.1394 74.7858C33.0557 74.9442 32.9274 75.0686 32.7543 75.1591C32.5812 75.2484 32.3601 75.2931 32.0909 75.2931H31.1408V74.9131H32.0774C32.2629 74.9131 32.4122 74.8859 32.5253 74.8316C32.6395 74.7774 32.7221 74.7004 32.773 74.6009C32.825 74.5002 32.851 74.3804 32.851 74.2412C32.851 74.1021 32.825 73.9805 32.773 73.8765C32.7209 73.7724 32.6378 73.6921 32.5236 73.6356C32.4093 73.5779 32.2583 73.549 32.0706 73.549H31.3309V76.6504H30.9101ZM32.5456 75.0895L33.4007 76.6504H32.9121L32.0706 75.0895H32.5456ZM34.1086 76.6504H33.6675L34.9433 73.1758H35.3776L36.6535 76.6504H36.2124L35.1741 73.7255H35.1469L34.1086 76.6504ZM34.2715 75.2931H36.0495V75.6664H34.2715V75.2931ZM39.95 73.1758V76.6504H39.5428L37.6494 73.9223H37.6155V76.6504H37.1947V73.1758H37.6019L39.5021 75.9107H39.536V73.1758H39.95ZM40.7919 76.6504V73.1758H42.8889V73.549H41.2126V74.7231H42.7803V75.0963H41.2126V76.2771H42.916V76.6504H40.7919ZM45.5474 74.0444C45.5271 73.8725 45.4445 73.739 45.2997 73.644C45.1549 73.549 44.9774 73.5015 44.767 73.5015C44.6132 73.5015 44.4786 73.5264 44.3632 73.5762C44.249 73.6259 44.1596 73.6944 44.0951 73.7815C44.0318 73.8686 44.0001 73.9675 44.0001 74.0784C44.0001 74.1711 44.0222 74.2508 44.0663 74.3176C44.1115 74.3832 44.1692 74.438 44.2394 74.4822C44.3095 74.5251 44.383 74.5608 44.4599 74.589C44.5368 74.6162 44.6075 74.6382 44.672 74.6552L45.0249 74.7502C45.1154 74.774 45.216 74.8068 45.3269 74.8486C45.4388 74.8905 45.5457 74.9476 45.6475 75.02C45.7505 75.0912 45.8353 75.1828 45.902 75.2948C45.9687 75.4068 46.0021 75.5442 46.0021 75.7071C46.0021 75.8948 45.9529 76.0645 45.8545 76.2161C45.7572 76.3676 45.6147 76.4881 45.427 76.5774C45.2403 76.6668 45.0136 76.7115 44.7466 76.7115C44.4978 76.7115 44.2823 76.6713 44.1002 76.591C43.9193 76.5107 43.7768 76.3987 43.6727 76.2551C43.5698 76.1114 43.5115 75.9446 43.4979 75.7546H43.9323C43.9436 75.8858 43.9877 75.9944 44.0646 76.0803C44.1427 76.1652 44.2411 76.2285 44.3598 76.2704C44.4797 76.3111 44.6086 76.3314 44.7466 76.3314C44.9072 76.3314 45.0515 76.3054 45.1793 76.2534C45.3071 76.2002 45.4083 76.1267 45.483 76.0328C45.5576 75.9378 45.5949 75.827 45.5949 75.7003C45.5949 75.5849 45.5627 75.4911 45.4982 75.4187C45.4338 75.3463 45.3489 75.2875 45.2437 75.2422C45.1385 75.197 45.0249 75.1574 44.9027 75.1235L44.4752 75.0013C44.2037 74.9233 43.9888 74.8119 43.8305 74.6671C43.6721 74.5223 43.593 74.3329 43.593 74.0987C43.593 73.9042 43.6456 73.7345 43.7507 73.5897C43.8571 73.4438 43.9996 73.3307 44.1783 73.2504C44.3581 73.169 44.5589 73.1283 44.7806 73.1283C45.0045 73.1283 45.2036 73.1684 45.3778 73.2487C45.552 73.3279 45.6899 73.4365 45.7917 73.5745C45.8947 73.7125 45.949 73.8691 45.9546 74.0444H45.5474ZM48.9673 76.6979C48.7389 76.6979 48.542 76.656 48.3769 76.5723C48.2118 76.4886 48.0845 76.3738 47.9952 76.2279C47.9058 76.082 47.8611 75.9152 47.8611 75.7274C47.8611 75.5827 47.8917 75.4543 47.9528 75.3423C48.015 75.2292 48.1004 75.1246 48.2089 75.0285C48.3187 74.9312 48.4448 74.8339 48.5873 74.7366L49.0895 74.3634C49.1879 74.2989 49.2665 74.2299 49.3253 74.1564C49.3853 74.0829 49.4152 73.9867 49.4152 73.868C49.4152 73.7798 49.3762 73.6944 49.2982 73.6118C49.2212 73.5292 49.12 73.4879 48.9945 73.4879C48.9062 73.4879 48.8282 73.5106 48.7603 73.5558C48.6936 73.5999 48.641 73.6565 48.6026 73.7255C48.5652 73.7933 48.5466 73.8635 48.5466 73.9358C48.5466 74.0173 48.5686 74.0999 48.6127 74.1836C48.658 74.2661 48.7151 74.3509 48.7841 74.438C48.8542 74.524 48.9266 74.6122 49.0013 74.7027L50.5961 76.6504H50.1142L48.7977 75.0624C48.6755 74.9153 48.5647 74.7819 48.4651 74.662C48.3656 74.5421 48.2864 74.4239 48.2276 74.3074C48.1688 74.1909 48.1394 74.0648 48.1394 73.9291C48.1394 73.773 48.1739 73.6361 48.2429 73.5185C48.313 73.3997 48.4108 73.3075 48.5364 73.2419C48.6631 73.1752 48.8112 73.1418 48.9809 73.1418C49.1551 73.1418 49.3049 73.1758 49.4305 73.2436C49.556 73.3104 49.6527 73.3992 49.7206 73.51C49.7885 73.6197 49.8224 73.739 49.8224 73.868C49.8224 74.0343 49.7811 74.1785 49.6986 74.3006C49.616 74.4228 49.5034 74.5364 49.3609 74.6416L48.6687 75.1574C48.5126 75.2728 48.4069 75.3847 48.3515 75.4933C48.296 75.6019 48.2683 75.6799 48.2683 75.7274C48.2683 75.836 48.2966 75.9373 48.3532 76.0311C48.4097 76.125 48.4895 76.2008 48.5924 76.2585C48.6953 76.3162 48.8158 76.345 48.9538 76.345C49.085 76.345 49.2128 76.3173 49.3372 76.2619C49.4616 76.2053 49.5741 76.1239 49.6748 76.0176C49.7766 75.9112 49.8569 75.7834 49.9157 75.6341C49.9757 75.4848 50.0056 75.3169 50.0056 75.1302H50.3925C50.3925 75.361 50.3659 75.5493 50.3127 75.6952C50.2596 75.8411 50.1996 75.9554 50.1329 76.0379C50.0661 76.1205 50.0124 76.1821 49.9717 76.2229C49.9581 76.2398 49.9457 76.2568 49.9344 76.2737C49.9231 76.2907 49.9106 76.3077 49.8971 76.3246C49.7851 76.4502 49.6437 76.5441 49.4729 76.6063C49.3021 76.6674 49.1336 76.6979 48.9673 76.6979ZM55.2333 74.2616H54.8125C54.7876 74.1406 54.7441 74.0343 54.6819 73.9426C54.6208 73.851 54.5461 73.7741 54.4579 73.7119C54.3708 73.6486 54.2741 73.6011 54.1678 73.5694C54.0615 73.5377 53.9506 73.5219 53.8353 73.5219C53.6249 73.5219 53.4343 73.575 53.2635 73.6814C53.0939 73.7877 52.9587 73.9443 52.858 74.1513C52.7585 74.3583 52.7087 74.6122 52.7087 74.9131C52.7087 75.2139 52.7585 75.4679 52.858 75.6749C52.9587 75.8818 53.0939 76.0385 53.2635 76.1448C53.4343 76.2511 53.6249 76.3043 53.8353 76.3043C53.9506 76.3043 54.0615 76.2885 54.1678 76.2568C54.2741 76.2251 54.3708 76.1782 54.4579 76.116C54.5461 76.0526 54.6208 75.9751 54.6819 75.8835C54.7441 75.7908 54.7876 75.6845 54.8125 75.5646H55.2333C55.2016 75.7422 55.1439 75.9011 55.0602 76.0413C54.9765 76.1816 54.8724 76.3009 54.748 76.3993C54.6236 76.4966 54.4839 76.5707 54.329 76.6215C54.1751 76.6724 54.0106 76.6979 53.8353 76.6979C53.5389 76.6979 53.2754 76.6255 53.0447 76.4807C52.8139 76.336 52.6324 76.1301 52.5 75.8632C52.3677 75.5962 52.3015 75.2795 52.3015 74.9131C52.3015 74.5466 52.3677 74.2299 52.5 73.963C52.6324 73.6961 52.8139 73.4902 53.0447 73.3454C53.2754 73.2007 53.5389 73.1283 53.8353 73.1283C54.0106 73.1283 54.1751 73.1537 54.329 73.2046C54.4839 73.2555 54.6236 73.3302 54.748 73.4286C54.8724 73.5258 54.9765 73.6446 55.0602 73.7849C55.1439 73.924 55.2016 74.0829 55.2333 74.2616ZM56.0557 76.6504H55.6146L56.8904 73.1758H57.3247L58.6006 76.6504H58.1594L57.1211 73.7255H57.094L56.0557 76.6504ZM56.2185 75.2931H57.9966V75.6664H56.2185V75.2931ZM59.1418 76.6504V73.1758H60.3565C60.5986 73.1758 60.7982 73.2176 60.9554 73.3013C61.1126 73.3839 61.2297 73.4953 61.3066 73.6356C61.3835 73.7747 61.422 73.9291 61.422 74.0987C61.422 74.248 61.3954 74.3713 61.3422 74.4686C61.2902 74.5658 61.2212 74.6428 61.1353 74.6993C61.0504 74.7559 60.9583 74.7977 60.8587 74.8249V74.8588C60.965 74.8656 61.0719 74.9029 61.1794 74.9708C61.2868 75.0386 61.3767 75.1359 61.4491 75.2626C61.5215 75.3893 61.5577 75.5442 61.5577 75.7274C61.5577 75.9016 61.5181 76.0583 61.439 76.1974C61.3598 76.3365 61.2348 76.4468 61.064 76.5282C60.8932 76.6097 60.671 76.6504 60.3972 76.6504H59.1418ZM59.5625 76.2771H60.3972C60.6721 76.2771 60.8672 76.224 60.9826 76.1177C61.0991 76.0102 61.1573 75.8801 61.1573 75.7274C61.1573 75.6098 61.1273 75.5012 61.0674 75.4017C61.0075 75.301 60.9221 75.2207 60.8112 75.1608C60.7004 75.0997 60.5692 75.0692 60.4176 75.0692H59.5625V76.2771ZM59.5625 74.7027H60.343C60.4696 74.7027 60.5839 74.6778 60.6857 74.6281C60.7886 74.5783 60.87 74.5082 60.93 74.4177C60.9911 74.3272 61.0216 74.2209 61.0216 74.0987C61.0216 73.946 60.9684 73.8165 60.8621 73.7102C60.7558 73.6028 60.5873 73.549 60.3565 73.549H59.5625V74.7027ZM64.1493 74.0444C64.1289 73.8725 64.0463 73.739 63.9016 73.644C63.7568 73.549 63.5792 73.5015 63.3688 73.5015C63.215 73.5015 63.0804 73.5264 62.965 73.5762C62.8508 73.6259 62.7614 73.6944 62.697 73.7815C62.6336 73.8686 62.602 73.9675 62.602 74.0784C62.602 74.1711 62.624 74.2508 62.6681 74.3176C62.7134 74.3832 62.7711 74.438 62.8412 74.4822C62.9113 74.5251 62.9848 74.5608 63.0617 74.589C63.1387 74.6162 63.2093 74.6382 63.2738 74.6552L63.6267 74.7502C63.7172 74.774 63.8179 74.8068 63.9287 74.8486C64.0407 74.8905 64.1476 74.9476 64.2494 75.02C64.3523 75.0912 64.4371 75.1828 64.5038 75.2948C64.5706 75.4068 64.6039 75.5442 64.6039 75.7071C64.6039 75.8948 64.5547 76.0645 64.4563 76.2161C64.3591 76.3676 64.2166 76.4881 64.0288 76.5774C63.8422 76.6668 63.6154 76.7115 63.3485 76.7115C63.0996 76.7115 62.8842 76.6713 62.7021 76.591C62.5211 76.5107 62.3786 76.3987 62.2745 76.2551C62.1716 76.1114 62.1133 75.9446 62.0998 75.7546H62.5341C62.5454 75.8858 62.5895 75.9944 62.6664 76.0803C62.7445 76.1652 62.8429 76.2285 62.9616 76.2704C63.0815 76.3111 63.2105 76.3314 63.3485 76.3314C63.5091 76.3314 63.6533 76.3054 63.7811 76.2534C63.9089 76.2002 64.0101 76.1267 64.0848 76.0328C64.1594 75.9378 64.1968 75.827 64.1968 75.7003C64.1968 75.5849 64.1645 75.4911 64.1001 75.4187C64.0356 75.3463 63.9508 75.2875 63.8456 75.2422C63.7404 75.197 63.6267 75.1574 63.5045 75.1235L63.077 75.0013C62.8056 74.9233 62.5907 74.8119 62.4323 74.6671C62.274 74.5223 62.1948 74.3329 62.1948 74.0987C62.1948 73.9042 62.2474 73.7345 62.3526 73.5897C62.4589 73.4438 62.6014 73.3307 62.7801 73.2504C62.9599 73.169 63.1607 73.1283 63.3824 73.1283C63.6063 73.1283 63.8054 73.1684 63.9796 73.2487C64.1538 73.3279 64.2918 73.4365 64.3936 73.5745C64.4965 73.7125 64.5508 73.8691 64.5564 74.0444H64.1493ZM66.6394 76.6504V73.1758H67.8135C68.086 73.1758 68.3089 73.225 68.4819 73.3234C68.6561 73.4207 68.785 73.5524 68.8687 73.7187C68.9524 73.885 68.9943 74.0704 68.9943 74.2752C68.9943 74.4799 68.9524 74.6659 68.8687 74.8333C68.7862 75.0007 68.6584 75.1342 68.4853 75.2337C68.3123 75.3321 68.0906 75.3813 67.8202 75.3813H66.9787V75.0081H67.8067C67.9933 75.0081 68.1432 74.9759 68.2563 74.9114C68.3694 74.8469 68.4514 74.7598 68.5023 74.6501C68.5543 74.5393 68.5803 74.4143 68.5803 74.2752C68.5803 74.136 68.5543 74.0116 68.5023 73.9019C68.4514 73.7922 68.3688 73.7062 68.2546 73.644C68.1403 73.5807 67.9888 73.549 67.7999 73.549H67.0602V76.6504H66.6394ZM69.8146 73.1758L70.8461 76.1007H70.8868L71.9184 73.1758H72.3595L71.0836 76.6504H70.6493L69.3735 73.1758H69.8146ZM72.7107 73.549V73.1758H75.3166V73.549H74.224V76.6504H73.8033V73.549H72.7107ZM75.966 76.6504V73.1758H76.3868V76.2771H78.0019V76.6504H75.966ZM78.0015 73.549V73.1758H80.6074V73.549H79.5148V76.6504H79.0941V73.549H78.0015ZM82.3291 76.6504H81.2568V73.1758H82.3766C82.7136 73.1758 83.002 73.2453 83.2418 73.3845C83.4816 73.5224 83.6654 73.7209 83.7932 73.98C83.921 74.2378 83.9849 74.5466 83.9849 74.9063C83.9849 75.2682 83.9205 75.5798 83.7915 75.8411C83.6626 76.1013 83.4748 76.3015 83.2282 76.4417C82.9817 76.5808 82.6819 76.6504 82.3291 76.6504ZM81.6776 76.2771H82.3019C82.5892 76.2771 82.8273 76.2217 83.0162 76.1109C83.2051 76 83.3459 75.8422 83.4386 75.6375C83.5314 75.4328 83.5777 75.1891 83.5777 74.9063C83.5777 74.6258 83.5319 74.3843 83.4403 74.1819C83.3487 73.9783 83.2118 73.8222 83.0297 73.7136C82.8476 73.6039 82.6209 73.549 82.3494 73.549H81.6776V76.2771Z" fill="#3B4051"/>
</g>
<defs>
<clipPath id="clip0_5294_9246">
<rect width="116" height="77.7204" fill="white" transform="translate(0 0.03125)"/>
</clipPath>
</defs>
</svg>
