<svg width="38" height="38" viewBox="0 0 38 38" fill="none" xmlns="http://www.w3.org/2000/svg">
<g filter="url(#filter0_d_22_241)">
<rect x="4" y="1" width="30" height="30" rx="7" fill="white"/>
</g>
<path d="M18.5781 8.27967C15.2172 8.49764 12.6719 11.4437 12.6719 14.8117V19.5156C12.6719 20.6828 13.6141 21.625 14.7812 21.625H15.4844C16.2578 21.625 16.8906 20.9922 16.8906 20.2187V17.4062C16.8906 16.6328 16.2578 16 15.4844 16H14.0781V14.7976C14.0781 12.0976 16.1594 9.7492 18.8523 9.67186C21.6437 9.59452 23.9219 11.8234 23.9219 14.5937V16H22.5156C21.7422 16 21.1094 16.6328 21.1094 17.4062V20.2187C21.1094 20.9922 21.7422 21.625 22.5156 21.625H23.9219V22.3281H19.7031C19.3164 22.3281 19 22.6445 19 23.0312C19 23.418 19.3164 23.7344 19.7031 23.7344H23.2188C24.3859 23.7344 25.3281 22.7922 25.3281 21.625V14.5937C25.3281 10.9586 22.2625 8.04061 18.5781 8.27967V8.27967Z" fill="#1890D0"/>
<defs>
<filter id="filter0_d_22_241" x="0" y="0" width="38" height="38" filterUnits="userSpaceOnUse" color-interpolation-filters="sRGB">
<feFlood flood-opacity="0" result="BackgroundImageFix"/>
<feColorMatrix in="SourceAlpha" type="matrix" values="0 0 0 0 0 0 0 0 0 0 0 0 0 0 0 0 0 0 127 0" result="hardAlpha"/>
<feOffset dy="3"/>
<feGaussianBlur stdDeviation="2"/>
<feComposite in2="hardAlpha" operator="out"/>
<feColorMatrix type="matrix" values="0 0 0 0 0 0 0 0 0 0 0 0 0 0 0 0 0 0 0.11 0"/>
<feBlend mode="normal" in2="BackgroundImageFix" result="effect1_dropShadow_22_241"/>
<feBlend mode="normal" in="SourceGraphic" in2="effect1_dropShadow_22_241" result="shape"/>
</filter>
</defs>
</svg>
