<svg width="22" height="22" viewBox="0 0 22 22" fill="none" xmlns="http://www.w3.org/2000/svg">
<g clip-path="url(#clip0_3924_4805)">
<path d="M11.917 0.916666C11.917 0.673551 12.0136 0.440393 12.1855 0.268485C12.3574 0.0965762 12.5905 -9.56669e-07 12.8336 -9.56669e-07C15.264 0.00266801 17.594 0.969296 19.3125 2.6878C21.031 4.40631 21.9976 6.73633 22.0003 9.16667C22.0003 9.40978 21.9037 9.64294 21.7318 9.81485C21.5599 9.98676 21.3268 10.0833 21.0836 10.0833C20.8405 10.0833 20.6074 9.98676 20.4355 9.81485C20.2636 9.64294 20.167 9.40978 20.167 9.16667C20.1648 7.22242 19.3915 5.35842 18.0167 3.98363C16.6419 2.60883 14.7779 1.83552 12.8336 1.83333C12.5905 1.83333 12.3574 1.73676 12.1855 1.56485C12.0136 1.39294 11.917 1.15978 11.917 0.916666ZM12.8336 5.5C13.8061 5.5 14.7387 5.88631 15.4264 6.57394C16.114 7.26157 16.5003 8.19421 16.5003 9.16667C16.5003 9.40978 16.5969 9.64294 16.7688 9.81485C16.9407 9.98676 17.1739 10.0833 17.417 10.0833C17.6601 10.0833 17.8933 9.98676 18.0652 9.81485C18.2371 9.64294 18.3336 9.40978 18.3336 9.16667C18.3322 7.70842 17.7523 6.31032 16.7211 5.27919C15.69 4.24805 14.2919 3.66812 12.8336 3.66667C12.5905 3.66667 12.3574 3.76324 12.1855 3.93515C12.0136 4.10706 11.917 4.34022 11.917 4.58333C11.917 4.82645 12.0136 5.05961 12.1855 5.23151C12.3574 5.40342 12.5905 5.5 12.8336 5.5ZM21.1689 15.3441C21.7001 15.8768 21.9984 16.5984 21.9984 17.3507C21.9984 18.103 21.7001 18.8246 21.1689 19.3572L20.3347 20.3188C12.8272 27.5064 -5.44194 9.24183 1.63473 1.7105L2.6889 0.793832C3.22218 0.277453 3.93733 -0.00820597 4.67962 -0.00134402C5.42192 0.00551793 6.13166 0.304349 6.65531 0.830499C6.68373 0.858916 8.38231 3.06533 8.38231 3.06533C8.88632 3.59482 9.16689 4.29818 9.1657 5.0292C9.1645 5.76022 8.88164 6.46266 8.3759 6.9905L7.3144 8.32517C7.90184 9.75252 8.76554 11.0497 9.85586 12.1423C10.9462 13.2348 12.2416 14.1011 13.6678 14.6914L15.0107 13.6235C15.5386 13.1182 16.241 12.8356 16.9718 12.8346C17.7026 12.8336 18.4057 13.1141 18.935 13.618C18.935 13.618 21.1405 15.3157 21.1689 15.3441ZM19.9076 16.6769C19.9076 16.6769 17.714 14.9893 17.6856 14.9609C17.4967 14.7737 17.2415 14.6686 16.9756 14.6686C16.7097 14.6686 16.4545 14.7737 16.2656 14.9609C16.2409 14.9866 14.392 16.4597 14.392 16.4597C14.2674 16.5588 14.1191 16.6238 13.9617 16.6483C13.8044 16.6727 13.6434 16.6557 13.4946 16.599C11.647 15.9111 9.96882 14.8342 8.57374 13.4412C7.17867 12.0481 6.09926 10.3716 5.40865 8.525C5.34741 8.37417 5.32745 8.20975 5.35081 8.04864C5.37417 7.88754 5.44001 7.73556 5.54156 7.60833C5.54156 7.60833 7.01465 5.7585 7.0394 5.73467C7.22664 5.54582 7.3317 5.29065 7.3317 5.02471C7.3317 4.75877 7.22664 4.5036 7.0394 4.31475C7.01098 4.28725 5.3234 2.09183 5.3234 2.09183C5.13172 1.91996 4.88157 1.82792 4.62421 1.83457C4.36685 1.84121 4.12178 1.94605 3.93923 2.12758L2.88506 3.04425C-2.28677 9.26292 13.545 24.2165 18.9946 19.0667L19.8296 18.1042C20.0253 17.9229 20.1429 17.6727 20.1574 17.4063C20.172 17.14 20.0824 16.8784 19.9076 16.6769Z" fill="white"/>
</g>
<defs>
<clipPath id="clip0_3924_4805">
<rect width="22" height="22" fill="white"/>
</clipPath>
</defs>
</svg>
