<svg width="26" height="26" viewBox="0 0 26 26" fill="none" xmlns="http://www.w3.org/2000/svg">
<g clip-path="url(#clip0_19_1145)">
<path fill-rule="evenodd" clip-rule="evenodd" d="M13 0C5.82032 0 0 5.82032 0 13C0 20.1797 5.82032 26 13 26C20.1797 26 26 20.1797 26 13C26 5.82032 20.1797 0 13 0ZM12.638 11.0164L12.6107 10.5666C12.5288 9.40068 13.2472 8.33576 14.3839 7.92269C14.8021 7.77579 15.5114 7.75743 15.9752 7.88596C16.157 7.94105 16.5026 8.12462 16.7481 8.28988L17.1936 8.59284L17.6847 8.43678C17.9575 8.35413 18.3212 8.21643 18.4849 8.12462C18.6395 8.04202 18.7758 7.99608 18.7758 8.02365C18.7758 8.17971 18.4394 8.71217 18.1575 9.00591C17.7756 9.41904 17.8848 9.45577 18.6577 9.18033C19.1214 9.02427 19.1305 9.02428 19.0396 9.19869C18.985 9.2905 18.7031 9.61182 18.403 9.90557C17.8938 10.4105 17.8666 10.4656 17.8666 10.8879C17.8666 11.5397 17.5574 12.8983 17.2482 13.6419C16.6753 15.0373 15.4477 16.4786 14.2202 17.2038C12.4925 18.2229 10.1918 18.4799 8.255 17.8832C7.60939 17.6812 6.5 17.1671 6.5 17.0753C6.5 17.0478 6.83643 17.011 7.24566 17.0019C8.10041 16.9835 8.95516 16.7448 9.68262 16.3225L10.1737 16.0288L9.60987 15.836C8.80967 15.5606 8.09131 14.9271 7.90947 14.3304C7.85487 14.1377 7.87307 14.1285 8.38229 14.1285L8.90971 14.1193L8.46414 13.9082C7.93672 13.6419 7.4548 13.1921 7.21836 12.7331C7.04557 12.4026 6.82738 11.5672 6.89103 11.5029C6.90918 11.4754 7.10017 11.5305 7.3184 11.6039C7.94582 11.8334 8.02766 11.7783 7.66393 11.3928C6.98192 10.6951 6.77278 9.6577 7.10017 8.67544L7.25476 8.2348L7.85487 8.8315C9.0825 10.0341 10.5283 10.7502 12.1833 10.9613L12.638 11.0164Z" fill="#151515"/>
</g>
<defs>
<clipPath id="clip0_19_1145">
<rect width="26" height="26" fill="white"/>
</clipPath>
</defs>
</svg>
