<svg width="17" height="17" viewBox="0 0 17 17" fill="none" xmlns="http://www.w3.org/2000/svg">
<g clip-path="url(#clip0_18_713)">
<path d="M8.50001 8.49992C10.0654 8.49992 11.3333 7.232 11.3333 5.66659C11.3333 4.10117 10.0654 2.83325 8.50001 2.83325C6.93459 2.83325 5.66668 4.10117 5.66668 5.66659C5.66668 7.232 6.93459 8.49992 8.50001 8.49992ZM8.50001 4.24992C9.27918 4.24992 9.91668 4.88742 9.91668 5.66659C9.91668 6.44575 9.27918 7.08325 8.50001 7.08325C7.72084 7.08325 7.08334 6.44575 7.08334 5.66659C7.08334 4.88742 7.72084 4.24992 8.50001 4.24992ZM8.50001 9.20825C6.60876 9.20825 2.83334 10.1574 2.83334 12.0416V13.4583C2.83334 13.8478 3.15209 14.1666 3.54168 14.1666H13.4583C13.8479 14.1666 14.1667 13.8478 14.1667 13.4583V12.0416C14.1667 10.1574 10.3913 9.20825 8.50001 9.20825ZM12.75 12.7499H4.25001V12.0487C4.39168 11.5387 6.58751 10.6249 8.50001 10.6249C10.4125 10.6249 12.6083 11.5387 12.75 12.0416V12.7499Z" fill="#151515" fill-opacity="0.75"/>
</g>
<defs>
<clipPath id="clip0_18_713">
<rect width="17" height="17" fill="white"/>
</clipPath>
</defs>
</svg>
