<svg width="38" height="38" viewBox="0 0 38 38" fill="none" xmlns="http://www.w3.org/2000/svg">
<g filter="url(#filter0_d_22_245)">
<rect x="4" y="1" width="30" height="30" rx="7" fill="white"/>
</g>
<g clip-path="url(#clip0_22_245)">
<path d="M19 7.5625C14.3474 7.5625 10.5625 11.3474 10.5625 16C10.5625 20.6526 14.3474 24.4375 19 24.4375C23.6526 24.4375 27.4375 20.6526 27.4375 16C27.4375 11.3474 23.6526 7.5625 19 7.5625ZM16.1875 22.4434V22.3281C16.1875 20.777 17.4489 19.5156 19 19.5156C20.5511 19.5156 21.8125 20.777 21.8125 22.3281V22.4434C20.9505 22.821 19.9998 23.0312 19 23.0312C18.0002 23.0312 17.0495 22.821 16.1875 22.4434ZM23.166 21.6609C22.8454 19.6506 21.0995 18.1094 19 18.1094C16.9005 18.1094 15.1553 19.6506 14.834 21.6609C13.0973 20.3791 11.9688 18.3189 11.9688 16C11.9688 12.123 15.123 8.96875 19 8.96875C22.877 8.96875 26.0312 12.123 26.0312 16C26.0312 18.3189 24.9027 20.3791 23.166 21.6609ZM19 11.0781C17.4489 11.0781 16.1875 12.3395 16.1875 13.8906C16.1875 15.4417 17.4489 16.7031 19 16.7031C20.5511 16.7031 21.8125 15.4417 21.8125 13.8906C21.8125 12.3395 20.5511 11.0781 19 11.0781ZM19 15.2969C18.2245 15.2969 17.5938 14.6662 17.5938 13.8906C17.5938 13.1151 18.2245 12.4844 19 12.4844C19.7755 12.4844 20.4062 13.1151 20.4062 13.8906C20.4062 14.6662 19.7755 15.2969 19 15.2969Z" fill="#1890D0"/>
</g>
<defs>
<filter id="filter0_d_22_245" x="0" y="0" width="38" height="38" filterUnits="userSpaceOnUse" color-interpolation-filters="sRGB">
<feFlood flood-opacity="0" result="BackgroundImageFix"/>
<feColorMatrix in="SourceAlpha" type="matrix" values="0 0 0 0 0 0 0 0 0 0 0 0 0 0 0 0 0 0 127 0" result="hardAlpha"/>
<feOffset dy="3"/>
<feGaussianBlur stdDeviation="2"/>
<feComposite in2="hardAlpha" operator="out"/>
<feColorMatrix type="matrix" values="0 0 0 0 0 0 0 0 0 0 0 0 0 0 0 0 0 0 0.11 0"/>
<feBlend mode="normal" in2="BackgroundImageFix" result="effect1_dropShadow_22_245"/>
<feBlend mode="normal" in="SourceGraphic" in2="effect1_dropShadow_22_245" result="shape"/>
</filter>
<clipPath id="clip0_22_245">
<rect width="16.875" height="16.875" fill="white" transform="translate(10.5625 7.5625)"/>
</clipPath>
</defs>
</svg>
