<svg width="29" height="29" viewBox="0 0 29 29" fill="none" xmlns="http://www.w3.org/2000/svg">
<g clip-path="url(#clip0_5294_9097)">
<path d="M6.58609 15.9H19.5904L13.909 21.5814C13.455 22.0354 13.455 22.7805 13.909 23.2346C14.3631 23.6886 15.0965 23.6886 15.5506 23.2346L23.2227 15.5624C23.6768 15.1083 23.6768 14.3749 23.2227 13.9208L15.5622 6.23702C15.1081 5.78297 14.3747 5.78297 13.9206 6.23702C13.4666 6.69106 13.4666 7.42452 13.9206 7.87856L19.5904 13.5716H6.58609C5.94577 13.5716 5.42188 14.0955 5.42188 14.7358C5.42188 15.3761 5.94577 15.9 6.58609 15.9Z" fill="#FF6224"/>
</g>
<defs>
<clipPath id="clip0_5294_9097">
<rect width="27.9412" height="27.9412" fill="white" transform="translate(0.765625 0.765625)"/>
</clipPath>
</defs>
</svg>
