<svg width="34" height="34" viewBox="0 0 34 34" fill="none" xmlns="http://www.w3.org/2000/svg">
<circle cx="17" cy="17" r="16.5" fill="#168DCC" fill-opacity="0.74" stroke="#168DCC"/>
<g clip-path="url(#clip0_2942_61)">
<path d="M10.375 20.8225V23.2292C10.375 23.4508 10.5492 23.625 10.7708 23.625H13.1775C13.2804 23.625 13.3833 23.5854 13.4546 23.5062L22.0996 14.8692L19.1308 11.9004L10.4938 20.5375C10.4146 20.6167 10.375 20.7117 10.375 20.8225ZM24.3954 12.5733C24.7042 12.2646 24.7042 11.7658 24.3954 11.4571L22.5429 9.60458C22.2342 9.29583 21.7354 9.29583 21.4267 9.60458L19.9779 11.0533L22.9467 14.0221L24.3954 12.5733V12.5733Z" fill="white"/>
</g>
<defs>
<clipPath id="clip0_2942_61">
<rect width="19" height="19" fill="white" transform="translate(8 7)"/>
</clipPath>
</defs>
</svg>
