<svg width="83" height="15" viewBox="0 0 83 15" fill="none" xmlns="http://www.w3.org/2000/svg">
<path d="M6.43911 1.166C8.02311 1.166 9.33711 1.574 10.3811 2.39C11.4251 3.206 12.1151 4.316 12.4511 5.72H9.78711C9.51111 5.036 9.07911 4.496 8.49111 4.1C7.91511 3.704 7.21911 3.506 6.40311 3.506C5.73111 3.506 5.12511 3.674 4.58511 4.01C4.04511 4.346 3.62511 4.826 3.32511 5.45C3.02511 6.074 2.87511 6.806 2.87511 7.646C2.87511 8.474 3.02511 9.2 3.32511 9.824C3.62511 10.448 4.04511 10.928 4.58511 11.264C5.12511 11.6 5.73111 11.768 6.40311 11.768C7.21911 11.768 7.91511 11.57 8.49111 11.174C9.07911 10.778 9.51111 10.238 9.78711 9.554H12.4511C12.1151 10.958 11.4251 12.068 10.3811 12.884C9.33711 13.7 8.02311 14.108 6.43911 14.108C5.22711 14.108 4.15311 13.838 3.21711 13.298C2.29311 12.746 1.57311 11.978 1.05711 10.994C0.553105 10.01 0.301105 8.894 0.301105 7.646C0.301105 6.386 0.553105 5.264 1.05711 4.28C1.57311 3.296 2.29311 2.534 3.21711 1.994C4.14111 1.442 5.21511 1.166 6.43911 1.166ZM18.2613 3.902C19.1013 3.902 19.8213 4.1 20.4213 4.496C21.0213 4.892 21.4473 5.426 21.6993 6.098V4.028H24.2193V14H21.6993V11.912C21.4473 12.584 21.0213 13.124 20.4213 13.532C19.8213 13.928 19.1013 14.126 18.2613 14.126C17.4213 14.126 16.6653 13.922 15.9933 13.514C15.3213 13.106 14.7933 12.518 14.4093 11.75C14.0373 10.97 13.8513 10.058 13.8513 9.014C13.8513 7.97 14.0373 7.064 14.4093 6.296C14.7933 5.516 15.3213 4.922 15.9933 4.514C16.6653 4.106 17.4213 3.902 18.2613 3.902ZM19.0533 6.116C18.2613 6.116 17.6253 6.374 17.1453 6.89C16.6653 7.406 16.4253 8.114 16.4253 9.014C16.4253 9.914 16.6653 10.622 17.1453 11.138C17.6253 11.642 18.2613 11.894 19.0533 11.894C19.8213 11.894 20.4513 11.636 20.9433 11.12C21.4473 10.592 21.6993 9.89 21.6993 9.014C21.6993 8.126 21.4473 7.424 20.9433 6.908C20.4513 6.38 19.8213 6.116 19.0533 6.116ZM29.0574 5.936C29.4294 5.3 29.9214 4.802 30.5334 4.442C31.1454 4.07 31.8294 3.884 32.5854 3.884V6.602H31.8474C29.9874 6.602 29.0574 7.466 29.0574 9.194V14H26.5194V4.028H29.0574V5.936ZM43.85 3.884C45.002 3.884 45.92 4.262 46.604 5.018C47.288 5.774 47.63 6.836 47.63 8.204V14H45.11V8.492C45.11 7.7 44.906 7.088 44.498 6.656C44.09 6.212 43.532 5.99 42.824 5.99C42.104 5.99 41.528 6.224 41.096 6.692C40.664 7.16 40.448 7.832 40.448 8.708V14H37.91V4.028H40.448V6.026C40.712 5.354 41.144 4.832 41.744 4.46C42.356 4.076 43.058 3.884 43.85 3.884ZM59.2411 8.636C59.2411 8.888 59.2111 9.176 59.1511 9.5H51.8431C51.8791 10.388 52.1191 11.042 52.5631 11.462C53.0071 11.882 53.5591 12.092 54.2191 12.092C54.8071 12.092 55.2931 11.948 55.6771 11.66C56.0731 11.372 56.3251 10.982 56.4331 10.49H59.1151C58.9831 11.186 58.7011 11.81 58.2691 12.362C57.8371 12.914 57.2791 13.346 56.5951 13.658C55.9231 13.97 55.1731 14.126 54.3451 14.126C53.3731 14.126 52.5091 13.922 51.7531 13.514C50.9971 13.094 50.4091 12.5 49.9891 11.732C49.5691 10.964 49.3591 10.058 49.3591 9.014C49.3591 7.97 49.5691 7.064 49.9891 6.296C50.4091 5.516 50.9971 4.922 51.7531 4.514C52.5091 4.106 53.3731 3.902 54.3451 3.902C55.3291 3.902 56.1871 4.106 56.9191 4.514C57.6631 4.922 58.2331 5.486 58.6291 6.206C59.0371 6.914 59.2411 7.724 59.2411 8.636ZM56.6851 8.384C56.7211 7.568 56.5051 6.95 56.0371 6.53C55.5811 6.11 55.0171 5.9 54.3451 5.9C53.6611 5.9 53.0851 6.11 52.6171 6.53C52.1491 6.95 51.8911 7.568 51.8431 8.384H56.6851ZM70.4208 8.636C70.4208 8.888 70.3908 9.176 70.3308 9.5H63.0228C63.0588 10.388 63.2988 11.042 63.7428 11.462C64.1868 11.882 64.7388 12.092 65.3988 12.092C65.9868 12.092 66.4728 11.948 66.8568 11.66C67.2528 11.372 67.5048 10.982 67.6128 10.49H70.2948C70.1628 11.186 69.8808 11.81 69.4488 12.362C69.0168 12.914 68.4588 13.346 67.7748 13.658C67.1028 13.97 66.3528 14.126 65.5248 14.126C64.5528 14.126 63.6888 13.922 62.9328 13.514C62.1768 13.094 61.5888 12.5 61.1688 11.732C60.7488 10.964 60.5388 10.058 60.5388 9.014C60.5388 7.97 60.7488 7.064 61.1688 6.296C61.5888 5.516 62.1768 4.922 62.9328 4.514C63.6888 4.106 64.5528 3.902 65.5248 3.902C66.5088 3.902 67.3668 4.106 68.0988 4.514C68.8428 4.922 69.4128 5.486 69.8088 6.206C70.2168 6.914 70.4208 7.724 70.4208 8.636ZM67.8648 8.384C67.9008 7.568 67.6848 6.95 67.2168 6.53C66.7608 6.11 66.1968 5.9 65.5248 5.9C64.8408 5.9 64.2648 6.11 63.7968 6.53C63.3288 6.95 63.0708 7.568 63.0228 8.384H67.8648ZM76.1285 3.902C76.9685 3.902 77.6825 4.1 78.2705 4.496C78.8705 4.892 79.3025 5.426 79.5665 6.098V0.68H82.0865V14H79.5665V11.912C79.3025 12.584 78.8705 13.124 78.2705 13.532C77.6825 13.928 76.9685 14.126 76.1285 14.126C75.2885 14.126 74.5325 13.922 73.8605 13.514C73.1885 13.106 72.6605 12.518 72.2765 11.75C71.9045 10.97 71.7185 10.058 71.7185 9.014C71.7185 7.97 71.9045 7.064 72.2765 6.296C72.6605 5.516 73.1885 4.922 73.8605 4.514C74.5325 4.106 75.2885 3.902 76.1285 3.902ZM76.9205 6.116C76.1285 6.116 75.4925 6.374 75.0125 6.89C74.5325 7.406 74.2925 8.114 74.2925 9.014C74.2925 9.914 74.5325 10.622 75.0125 11.138C75.4925 11.642 76.1285 11.894 76.9205 11.894C77.6885 11.894 78.3185 11.636 78.8105 11.12C79.3145 10.592 79.5665 9.89 79.5665 9.014C79.5665 8.126 79.3145 7.424 78.8105 6.908C78.3185 6.38 77.6885 6.116 76.9205 6.116Z" fill="white"/>
</svg>
