<svg width="27" height="27" viewBox="0 0 27 27" fill="none" xmlns="http://www.w3.org/2000/svg">
<path d="M13.5 2.69971C12.0093 2.69971 10.8 3.90823 10.8 5.39971C10.8 6.89038 12.0093 8.09971 13.5 8.09971C14.9907 8.09971 16.2 6.89038 16.2 5.39971C16.2 3.90823 14.9907 2.69971 13.5 2.69971ZM13.5 6.29962C13.0024 6.29962 12.6001 5.89624 12.6001 5.39971C12.6001 4.9021 13.0024 4.4998 13.5 4.4998C13.9976 4.4998 14.3999 4.90237 14.3999 5.39971C14.3999 5.89624 13.9976 6.29962 13.5 6.29962Z" fill="#10A310"/>
<path d="M13.2608 19.5153L8.47261 24.3003L7.2001 23.0275L11.9883 18.2412L13.2608 19.5153Z" fill="#10A310"/>
<path d="M8.99991 16.2003H10.8V14.246L12.6001 12.4451V16.9455L16.2 20.5457V24.3003H18.0001V20.7001C18.0001 20.2055 17.7133 19.5135 17.3637 19.1641L14.3999 16.1984V9.89984H12.6001L9.6363 12.8634C9.28638 13.213 8.99991 13.905 8.99991 14.3997V16.2003Z" fill="#10A310"/>
<path d="M18.5274 16.5729L19.7999 15.3001L15.7499 11.2498V13.7951L18.5274 16.5729Z" fill="#10A310"/>
</svg>
